<svg width="21" height="21" viewBox="0 0 21 21" fill="none" xmlns="http://www.w3.org/2000/svg">
<path d="M3.93294 15.7276C3.09961 14.8109 2.59961 13.8109 2.59961 12.1443C2.59961 9.22761 4.68294 6.64428 7.59961 5.31094L8.34961 6.39428C5.59961 7.89428 5.01628 9.81094 4.84961 11.0609C5.26628 10.8109 5.84961 10.7276 6.43294 10.8109C7.93294 10.9776 9.09961 12.1443 9.09961 13.7276C9.09961 14.4776 8.76628 15.2276 8.26628 15.8109C7.68294 16.3943 7.01628 16.6443 6.18294 16.6443C5.26628 16.6443 4.43294 16.2276 3.93294 15.7276ZM12.2663 15.7276C11.4329 14.8109 10.9329 13.8109 10.9329 12.1443C10.9329 9.22761 13.0163 6.64428 15.9329 5.31094L16.6829 6.39428C13.9329 7.89428 13.3496 9.81094 13.1829 11.0609C13.5996 10.8109 14.1829 10.7276 14.7663 10.8109C16.2663 10.9776 17.4329 12.1443 17.4329 13.7276C17.4329 14.4776 17.0996 15.2276 16.5996 15.8109C16.0996 16.3943 15.3496 16.6443 14.5163 16.6443C13.5996 16.6443 12.7663 16.2276 12.2663 15.7276Z" fill="white"/>
</svg>
