<svg width="37" height="37" viewBox="0 0 37 37" fill="none" xmlns="http://www.w3.org/2000/svg">
<g clip-path="url(#clip0_313_73)">
<path d="M19.6768 21.0425H32.8252C32.9651 21.0425 33.0992 20.9869 33.1981 20.888C33.297 20.7891 33.3525 20.655 33.3525 20.5152V18.4058C33.3525 18.2659 33.297 18.1318 33.1981 18.0329C33.0992 17.934 32.9651 17.8784 32.8252 17.8784H19.6768C19.5369 17.8784 19.4028 17.934 19.3039 18.0329C19.205 18.1318 19.1494 18.2659 19.1494 18.4058V20.5152C19.1494 20.655 19.205 20.7891 19.3039 20.888C19.4028 20.9869 19.5369 21.0425 19.6768 21.0425ZM20.2041 18.9331H32.2979V19.9878H20.2041V18.9331Z" fill="white"/>
<path d="M32.8252 22.0972H26.0049C25.865 22.0972 25.7309 22.1527 25.632 22.2516C25.5331 22.3505 25.4775 22.4847 25.4775 22.6245V24.7339C25.4775 24.8738 25.5331 25.0079 25.632 25.1068C25.7309 25.2057 25.865 25.2612 26.0049 25.2612H32.8252C32.9651 25.2612 33.0992 25.2057 33.1981 25.1068C33.297 25.0079 33.3525 24.8738 33.3525 24.7339V22.6245C33.3525 22.4847 33.297 22.3505 33.1981 22.2516C33.0992 22.1527 32.9651 22.0972 32.8252 22.0972ZM32.2979 24.2066H26.5322V23.1519H32.2979V24.2066Z" fill="white"/>
<path d="M19.6768 25.2612H23.8955C24.0354 25.2612 24.1695 25.2057 24.2684 25.1068C24.3673 25.0079 24.4229 24.8738 24.4229 24.7339V22.6245C24.4229 22.4847 24.3673 22.3505 24.2684 22.2516C24.1695 22.1527 24.0354 22.0972 23.8955 22.0972H19.6768C19.5369 22.0972 19.4028 22.1527 19.3039 22.2516C19.205 22.3505 19.1494 22.4847 19.1494 22.6245V24.7339C19.1494 24.8738 19.205 25.0079 19.3039 25.1068C19.4028 25.2057 19.5369 25.2612 19.6768 25.2612ZM20.2041 23.1519H23.3682V24.2066H20.2041V23.1519Z" fill="white"/>
<path d="M4.91113 25.2612H15.458C15.9706 25.2605 16.462 25.0565 16.8244 24.6941C17.1869 24.3316 17.3909 23.8402 17.3916 23.3277V12.7808C17.3909 12.2682 17.1869 11.7768 16.8244 11.4143C16.462 11.0519 15.9706 10.8479 15.458 10.8472H4.91113C4.39854 10.8479 3.90716 11.0519 3.5447 11.4143C3.18224 11.7768 2.97828 12.2682 2.97754 12.7808V23.3277C2.97828 23.8402 3.18224 24.3316 3.5447 24.6941C3.90716 25.0565 4.39854 25.2605 4.91113 25.2612ZM4.03223 12.7808C4.0326 12.5478 4.12532 12.3245 4.29006 12.1597C4.45481 11.995 4.67815 11.9022 4.91113 11.9019H15.458C15.691 11.9022 15.9143 11.995 16.0791 12.1597C16.2438 12.3245 16.3365 12.5478 16.3369 12.7808V23.3277C16.3365 23.5606 16.2438 23.784 16.0791 23.9487C15.9143 24.1135 15.691 24.2062 15.458 24.2066H4.91113C4.67815 24.2062 4.45481 24.1135 4.29006 23.9487C4.12532 23.784 4.0326 23.5606 4.03223 23.3277V12.7808Z" fill="white"/>
<path d="M34.2314 8.03469H32.8449C32.8512 7.88844 32.8554 7.74219 32.8554 7.59523V3.42289C32.8556 3.31671 32.8237 3.21295 32.764 3.12515C32.7043 3.03735 32.6195 2.96958 32.5207 2.9307L26.4436 0.547813C26.3198 0.49928 26.1822 0.49928 26.0583 0.547813L19.9812 2.93141C19.8824 2.97029 19.7976 3.03805 19.7379 3.12585C19.6782 3.21365 19.6464 3.31742 19.6465 3.42359V7.59594C19.6465 7.74289 19.6507 7.88914 19.6571 8.03539H2.09863C1.58616 8.03613 1.09488 8.23999 0.732445 8.6023C0.370007 8.96461 0.165969 9.45581 0.165039 9.96828L0.165039 28.9527C0.165783 29.4653 0.369739 29.9566 0.732197 30.3191C1.09466 30.6816 1.58604 30.8855 2.09863 30.8862H14.1221V33.3472H10.0791C9.65952 33.3472 9.25712 33.5139 8.96044 33.8106C8.66375 34.1072 8.49707 34.5096 8.49707 34.9292C8.49707 35.3488 8.66375 35.7512 8.96044 36.0479C9.25712 36.3446 9.65952 36.5112 10.0791 36.5112H26.251C26.6706 36.5112 27.073 36.3446 27.3696 36.0479C27.6663 35.7512 27.833 35.3488 27.833 34.9292C27.833 34.5096 27.6663 34.1072 27.3696 33.8106C27.073 33.5139 26.6706 33.3472 26.251 33.3472H22.208V30.8862H34.2314C34.744 30.8855 35.2354 30.6816 35.5979 30.3191C35.9603 29.9566 36.1643 29.4653 36.165 28.9527V9.96828C36.1643 9.45569 35.9603 8.9643 35.5979 8.60185C35.2354 8.23939 34.744 8.03543 34.2314 8.03469ZM20.7012 3.78219L26.251 1.6025L31.8007 3.78219V7.59523C31.808 9.37965 31.2841 11.1259 30.2958 12.6116C29.3075 14.0974 27.8995 15.2555 26.251 15.9385C24.6024 15.2555 23.1944 14.0974 22.2061 12.6116C21.2178 11.1259 20.694 9.37965 20.7012 7.59523V3.78219ZM2.09863 9.08938H19.7569C20.02 10.845 20.741 12.5003 21.8472 13.8886C22.9534 15.277 24.4059 16.3495 26.0583 16.9981C26.1821 17.0469 26.3198 17.0469 26.4436 16.9981C28.0961 16.3495 29.5485 15.277 30.6547 13.8886C31.761 12.5003 32.4819 10.845 32.745 9.08938H34.2314C34.4644 9.08975 34.6878 9.18247 34.8525 9.34721C35.0173 9.51196 35.11 9.7353 35.1104 9.96828V27.0191H1.21973V9.96828C1.2201 9.7353 1.31282 9.51196 1.47756 9.34721C1.64231 9.18247 1.86565 9.08975 2.09863 9.08938ZM26.7783 34.9292C26.7783 35.0691 26.7228 35.2032 26.6239 35.3021C26.525 35.401 26.3908 35.4566 26.251 35.4566H10.0791C9.93924 35.4566 9.80511 35.401 9.70621 35.3021C9.60732 35.2032 9.55176 35.0691 9.55176 34.9292C9.55176 34.7894 9.60732 34.6552 9.70621 34.5563C9.80511 34.4574 9.93924 34.4019 10.0791 34.4019H26.251C26.3908 34.4019 26.525 34.4574 26.6239 34.5563C26.7228 34.6552 26.7783 34.7894 26.7783 34.9292ZM21.1533 33.3472H15.1768V30.8862H21.1533V33.3472ZM34.2314 29.8316H2.09863C1.86565 29.8312 1.64231 29.7385 1.47756 29.5737C1.31282 29.409 1.2201 29.1856 1.21973 28.9527V28.0737H35.1104V28.9527C35.11 29.1856 35.0173 29.409 34.8525 29.5737C34.6878 29.7385 34.4644 29.8312 34.2314 29.8316Z" fill="white"/>
<path d="M25.5669 11.7612C25.7535 11.7618 25.9385 11.7253 26.111 11.6538C26.2834 11.5824 26.44 11.4774 26.5716 11.345L29.9691 7.9475C30.0181 7.89852 30.057 7.84038 30.0835 7.77637C30.1101 7.71237 30.1237 7.64377 30.1237 7.57449C30.1237 7.50521 30.1101 7.43661 30.0835 7.37261C30.057 7.3086 30.0181 7.25045 29.9691 7.20148L28.7035 5.93586C28.6546 5.88687 28.5965 5.84801 28.5326 5.8215C28.4686 5.79499 28.4001 5.78134 28.3308 5.78134C28.2616 5.78134 28.1931 5.79499 28.1291 5.8215C28.0652 5.84801 28.0071 5.88687 27.9582 5.93586L25.564 8.32648L24.541 7.30695C24.4921 7.25797 24.434 7.21911 24.3701 7.1926C24.3061 7.16608 24.2376 7.15244 24.1683 7.15244C24.0991 7.15244 24.0306 7.16608 23.9666 7.1926C23.9027 7.21911 23.8446 7.25797 23.7957 7.30695L22.5301 8.56906C22.4811 8.61803 22.4422 8.67618 22.4157 8.74018C22.3891 8.80419 22.3755 8.87279 22.3755 8.94207C22.3755 9.01135 22.3891 9.07995 22.4157 9.14395C22.4422 9.20795 22.4811 9.2661 22.5301 9.31508L24.5635 11.345C24.6949 11.4773 24.8513 11.5821 25.0235 11.6536C25.1957 11.725 25.3804 11.7616 25.5669 11.7612ZM24.1683 8.42562L25.1963 9.45148C25.2453 9.50049 25.3034 9.53936 25.3674 9.56588C25.4314 9.59241 25.5 9.60606 25.5693 9.60606C25.6386 9.60606 25.7072 9.59241 25.7712 9.56588C25.8352 9.53936 25.8934 9.50049 25.9423 9.45148L28.333 7.06086L28.8498 7.57765L25.8263 10.6011C25.7578 10.6696 25.6648 10.708 25.5679 10.708C25.471 10.708 25.3781 10.6696 25.3095 10.6011L23.6494 8.94242L24.1683 8.42562Z" fill="white"/>
<path d="M7.02051 22.0972H13.3486C13.4885 22.0972 13.6226 22.0416 13.7215 21.9427C13.8204 21.8438 13.876 21.7097 13.876 21.5698V16.648C13.876 16.5611 13.8546 16.4757 13.8136 16.3991C13.7727 16.3226 13.7134 16.2573 13.6411 16.2092L10.4771 14.0998C10.3904 14.0421 10.2887 14.0113 10.1846 14.0113C10.0805 14.0113 9.97869 14.0421 9.89207 14.0998L6.72801 16.2092C6.65573 16.2573 6.59647 16.3226 6.55549 16.3991C6.51452 16.4757 6.49311 16.5611 6.49316 16.648V21.5698C6.49316 21.7097 6.54872 21.8438 6.64762 21.9427C6.74652 22.0416 6.88065 22.0972 7.02051 22.0972ZM7.54785 16.9299L10.1846 15.1721L12.8213 16.9299V21.0425H7.54785V16.9299Z" fill="white"/>
</g>
<defs>
<clipPath id="clip0_313_73">
<rect width="36" height="36" fill="white" transform="translate(0.165039 0.511246)"/>
</clipPath>
</defs>
</svg>
