<svg width="37" height="37" viewBox="0 0 37 37" fill="none" xmlns="http://www.w3.org/2000/svg">
<g clip-path="url(#clip0_313_25)">
<path d="M35.8051 16.5012L33.7651 15.6078V14.0052C33.7674 13.6338 33.595 13.2829 33.2995 13.0578L17.3335 0.637845C17.1168 0.46929 16.8133 0.46929 16.5967 0.637845L10.9651 5.01845V3.51125C10.9651 2.8485 10.4278 2.31125 9.76507 2.31125H6.16507C5.50233 2.31125 4.96507 2.8485 4.96507 3.51125V9.68585L0.636068 13.0512C0.337113 13.2769 0.162464 13.6307 0.165068 14.0052V17.2872C0.165068 17.95 0.702326 18.4872 1.36507 18.4872C1.63181 18.4873 1.89063 18.3965 2.09887 18.2298L3.76507 16.9338V34.7113C3.76507 35.7054 4.57096 36.5112 5.56507 36.5112H26.5651C26.7962 36.5111 27.0214 36.4383 27.2089 36.3031L33.4285 31.8162C35.1445 30.5761 36.1621 28.5886 36.1651 26.4714V17.0514C36.1652 16.8128 36.0238 16.5967 35.8051 16.5012ZM6.16507 3.51125H9.76507V5.95205L6.16507 8.75225V3.51125ZM1.36507 17.2872V14.0052L4.72507 11.3928L4.73407 11.3886L16.9651 1.87145L29.1967 11.3886C29.2009 11.3886 29.2063 11.3928 29.2105 11.3958L32.5651 14.0052V15.0852L26.8051 12.5652C26.6952 12.5209 26.5745 12.5111 26.4589 12.537L17.3335 5.43725C17.1168 5.26869 16.8133 5.26869 16.5967 5.43725L1.36507 17.2872ZM4.96507 34.7113V16.0008L16.9651 6.67145L25.1851 13.0614L17.3251 16.5012C17.1065 16.5966 16.9652 16.8124 16.9651 17.0508V22.1112H12.7651C11.771 22.1112 10.9651 22.9171 10.9651 23.9112V35.3112H5.56507C5.2337 35.3112 4.96507 35.0426 4.96507 34.7113ZM12.1651 35.3112V23.9112C12.1651 23.5799 12.4337 23.3112 12.7651 23.3112H16.9651V26.4714C16.9681 28.5886 17.9857 30.5761 19.7017 31.8162L21.7651 33.3048V35.3112H12.1651ZM24.5461 35.3112H22.9651V34.1712L24.5461 35.3112ZM34.9651 26.4714C34.9623 28.203 34.1302 29.8284 32.7271 30.8431L26.5651 35.2878L20.4031 30.8431C18.9999 29.8284 18.1678 28.203 18.1651 26.4714V17.4432L26.5651 13.7664L34.9651 17.4432V26.4714Z" fill="white"/>
<path d="M26.3252 15.1812L19.7252 18.0708C19.5067 18.1662 19.3654 18.382 19.3652 18.6204V26.4714C19.3671 27.8176 20.0141 29.0814 21.1052 29.8698L26.2142 33.555C26.4238 33.7062 26.7067 33.7062 26.9162 33.555L32.0252 29.8692C33.1162 29.0809 33.7632 27.8174 33.7652 26.4714V18.6204C33.7651 18.382 33.6238 18.1662 33.4052 18.0708L26.8052 15.1812C26.6522 15.1145 26.4783 15.1145 26.3252 15.1812ZM32.5652 19.0122V26.4714C32.564 27.432 32.1021 28.3338 31.3232 28.896L26.5652 32.3286L21.8072 28.8966C21.0288 28.3337 20.5671 27.4321 20.5652 26.4714V19.0122L26.5652 16.386L32.5652 19.0122Z" fill="white"/>
<path d="M23.3667 24.9054C23.2082 24.757 22.9818 24.7057 22.7748 24.7715C22.5678 24.8372 22.4125 25.0097 22.3688 25.2224C22.325 25.4352 22.3996 25.6549 22.5639 25.797L24.9639 27.957C25.074 28.0563 25.217 28.1112 25.3653 28.1112C25.3903 28.1114 25.4154 28.1098 25.4403 28.1064C25.613 28.0847 25.7678 27.9891 25.8645 27.8442L30.6645 20.6442C30.7834 20.4659 30.7982 20.2376 30.7033 20.0454C30.6083 19.8532 30.418 19.7263 30.2041 19.7124C29.9901 19.6986 29.785 19.7999 29.6661 19.9782L25.2513 26.601L23.3667 24.9054Z" fill="white"/>
</g>
<defs>
<clipPath id="clip0_313_25">
<rect width="36" height="36" fill="white" transform="translate(0.165039 0.511246)"/>
</clipPath>
</defs>
</svg>
