<svg width="41" height="41" viewBox="0 0 41 41" fill="none" xmlns="http://www.w3.org/2000/svg">
<g clip-path="url(#clip0_436_148)">
<path d="M0.907715 17.8545V38.5831L14.2333 28.2189L0.907715 17.8545Z" fill="white"/>
<path d="M35.6733 12.4618V18.8349L39.6087 15.7741L35.6733 12.4618Z" fill="white"/>
<path d="M21.5842 0.603462C21.1481 0.236509 20.511 0.236509 20.075 0.603462L16.9675 3.21885H24.6915L21.5842 0.603462Z" fill="white"/>
<path d="M5.98593 12.4618L2.05054 15.7741L5.98593 18.8349V12.4618Z" fill="white"/>
<path d="M16.5442 29.3907L2.48169 40.3282H39.1776L25.1151 29.3907H16.5442Z" fill="white"/>
<path d="M27.4258 28.2189L40.7514 38.5832V17.8544L27.4258 28.2189Z" fill="white"/>
<path d="M20.5341 14.341C19.5835 14.341 18.6003 15.2653 18.6003 16.8118C18.6003 18.3842 19.5594 19.4404 20.4552 19.4404C21.3985 19.4404 22.172 18.3367 22.2276 16.9491L22.2291 16.6545C22.187 15.2854 21.5019 14.341 20.5341 14.341Z" fill="white"/>
<path d="M25.1151 27.047L33.3296 20.6578V6.73448C33.3296 6.08729 32.8049 5.56261 32.1577 5.56261H9.50146C8.85428 5.56261 8.32959 6.08729 8.32959 6.73448V20.6579L16.5441 27.047H25.1151ZM12.5685 19.071C12.0089 16.9433 12.2903 14.7002 13.361 12.755C14.4312 10.8104 16.1753 9.37198 18.2719 8.70456C20.4839 8.00026 22.8326 8.20776 24.885 9.28878C26.9377 10.3699 28.4374 12.1883 29.1076 14.4092C29.1113 14.4212 29.1147 14.4334 29.118 14.4456C29.5634 16.1143 29.4315 17.6896 28.6903 19.5533C28.1893 20.813 26.9609 22.1591 25.016 22.1591C24.3104 22.1591 23.6337 21.8697 23.1108 21.3442C22.987 21.2198 22.8755 21.0843 22.7757 20.9408C22.1189 21.475 21.3224 21.7841 20.4554 21.7841C19.3227 21.7841 18.2215 21.2342 17.434 20.2755C16.6748 19.3511 16.2568 18.121 16.2568 16.8117C16.2568 15.4966 16.7016 14.2796 17.5094 13.3852C18.306 12.5032 19.4086 11.9972 20.5343 11.9972C21.1534 11.9972 21.7418 12.1448 22.2704 12.4228C22.3729 11.8796 22.8491 11.4692 23.4209 11.4692H23.4269C24.074 11.4725 24.5962 11.9997 24.5929 12.6469L24.5607 19.1575C24.5597 19.3574 24.6387 19.5567 24.7722 19.6908C24.8183 19.7373 24.9115 19.8152 25.016 19.8152C25.9616 19.8152 26.3776 19.0262 26.5124 18.6871C27.0598 17.3107 27.1636 16.2271 26.8583 15.068C26.3682 13.4613 25.2801 12.1457 23.7929 11.3625C22.3004 10.5764 20.5919 10.4257 18.9829 10.9378C15.8111 11.9475 13.9892 15.2581 14.8352 18.4748C15.5377 21.146 17.9523 23.0649 20.7071 23.1411C21.354 23.159 21.864 23.698 21.8461 24.345C21.8285 24.9809 21.3074 25.4844 20.6753 25.4844C20.6643 25.4844 20.6533 25.4842 20.6422 25.4839C18.8262 25.4337 17.0336 24.7886 15.5944 23.6674C14.0993 22.5027 13.053 20.9133 12.5685 19.071Z" fill="white"/>
</g>
<defs>
<clipPath id="clip0_436_148">
<rect width="40" height="40" fill="white" transform="translate(0.82959 0.328232)"/>
</clipPath>
</defs>
</svg>
