<svg width="40" height="41" viewBox="0 0 40 41" fill="none" xmlns="http://www.w3.org/2000/svg">
<g clip-path="url(#clip0_202_261)">
<path d="M39.2014 17.061L31.4427 12.0612C31.382 12.0226 31.3151 12.0079 31.2499 11.9863V10.2619C31.2499 9.80144 30.8772 9.4285 30.4164 9.4285H27.3221L20.8585 5.38871C20.5885 5.21939 20.245 5.21939 19.9747 5.38871L13.5112 9.4285H9.58338C9.12289 9.4285 8.74995 9.8012 8.74995 10.2619V11.9859C8.68471 12.0075 8.61756 12.0223 8.55712 12.0612L0.798444 17.061C0.560767 17.2148 0.416626 17.4786 0.416626 17.7616V39.4281C0.416626 39.8886 0.78933 40.2615 1.25005 40.2615H38.7498C39.2103 40.2615 39.5832 39.8888 39.5832 39.4281V17.7618C39.5832 17.4786 39.4391 17.215 39.2014 17.061ZM20.4167 7.07835L24.1776 9.4285H16.6559L20.4167 7.07835ZM10.4168 11.0951H29.5833V29.845C29.5833 29.8474 29.5847 29.8493 29.5847 29.8519L26.7657 31.5636L19.9822 27.8637C19.7291 27.727 19.4214 27.7277 19.1701 27.8718L12.9799 31.4092L10.4156 29.8522C10.4156 29.8498 10.417 29.8478 10.417 29.8455L10.4168 11.0951ZM2.08348 18.2158L8.74995 13.9204V28.841L2.08348 24.7931V18.2158ZM2.08348 26.7422L11.326 32.3537L2.08348 37.6353V26.7422ZM3.76281 38.5951L19.5931 29.5497L36.1766 38.5951H3.76281ZM37.9166 37.6456L28.4565 32.4858L37.9166 26.742V37.6456ZM37.9166 24.7931L31.2499 28.8408V13.9204L37.9166 18.2161V24.7931Z" fill="white"/>
<path d="M13.7501 19.4284H23.75C24.2105 19.4284 24.5834 19.0557 24.5834 18.595V13.5951C24.5834 13.1347 24.2107 12.7617 23.75 12.7617H13.7501C13.2896 12.7617 12.9166 13.1344 12.9166 13.5951V18.595C12.9166 19.0557 13.2896 19.4284 13.7501 19.4284ZM14.5832 14.4283H22.9166V17.7616H14.5832V14.4283Z" fill="white"/>
<path d="M26.2498 21.0947H12.9166V22.7613H26.2498V21.0947Z" fill="white"/>
<path d="M26.2498 24.4287H12.9166V26.0953H26.2498V24.4287Z" fill="white"/>
<path d="M35.4165 10.262C35.6297 10.262 35.8429 10.1807 36.0058 10.0178L38.9517 7.07191C39.2771 6.74645 39.2771 6.21905 38.9517 5.8936C38.6262 5.5679 38.0988 5.56814 37.7734 5.8936L34.8275 8.8395C34.502 9.16495 34.502 9.69235 34.8275 10.0178C34.9901 10.1807 35.2033 10.262 35.4165 10.262Z" fill="white"/>
<path d="M3.99419 10.0177C4.15704 10.1806 4.37025 10.2619 4.58347 10.2619C4.79668 10.2619 5.00989 10.1806 5.17274 10.0177C5.4982 9.69226 5.4982 9.16486 5.17274 8.83941L2.2266 5.89351C1.90115 5.56805 1.37375 5.56805 1.04829 5.89351C0.722835 6.21896 0.722835 6.74636 1.04829 7.07182L3.99419 10.0177Z" fill="white"/>
<path d="M28.4406 6.03588C28.5416 6.07666 28.6467 6.09512 28.7498 6.09512C29.0803 6.09512 29.3935 5.89726 29.5237 5.57108L31.1904 1.40442C31.3614 0.977275 31.1529 0.492088 30.7258 0.321325C30.3027 0.151282 29.8135 0.357061 29.6427 0.785887L27.9761 4.95255C27.8051 5.37993 28.0133 5.86512 28.4406 6.03588Z" fill="white"/>
<path d="M11.3095 5.57118C11.4398 5.8976 11.753 6.09522 12.0835 6.09522C12.1869 6.09522 12.2919 6.07652 12.3926 6.03574C12.8198 5.86474 13.0282 5.37979 12.8572 4.95265L11.1906 0.785986C11.0196 0.35716 10.5315 0.151141 10.1075 0.321425C9.68033 0.492427 9.47191 0.977374 9.64292 1.40452L11.3095 5.57118Z" fill="white"/>
</g>
<defs>
<clipPath id="clip0_202_261">
<rect width="40" height="40" fill="white" transform="translate(0 0.261719)"/>
</clipPath>
</defs>
</svg>
