<svg width="41" height="41" viewBox="0 0 41 41" fill="none" xmlns="http://www.w3.org/2000/svg">
<path d="M37.5708 29.2269C36.4783 28.3107 30.0708 24.2532 29.0058 24.4394C28.5058 24.5282 28.1233 24.9544 27.0996 26.1757C26.6262 26.7768 26.1062 27.3398 25.5446 27.8594C24.5156 27.6109 23.5195 27.2416 22.5771 26.7594C18.8812 24.9601 15.8954 21.9734 14.0971 18.2769C13.6149 17.3345 13.2457 16.3385 12.9971 15.3094C13.5168 14.7478 14.0797 14.2279 14.6808 13.7544C15.9008 12.7307 16.3283 12.3507 16.4171 11.8482C16.6033 10.7807 12.5421 4.37568 11.6296 3.28318C11.2471 2.83068 10.8996 2.52693 10.4546 2.52693C9.16459 2.52693 3.32959 9.74193 3.32959 10.6769C3.32959 10.7532 3.45459 18.2644 12.9408 27.9157C22.5921 37.4019 30.1033 37.5269 30.1796 37.5269C31.1146 37.5269 38.3296 31.6919 38.3296 30.4019C38.3296 29.9569 38.0258 29.6094 37.5708 29.2269Z" fill="white"/>
<path d="M29.5796 18.7769H32.0796C32.0766 16.1257 31.0221 13.5839 29.1474 11.7092C27.2726 9.83443 24.7308 8.77991 22.0796 8.77693V11.2769C24.0681 11.2789 25.9746 12.0697 27.3807 13.4758C28.7868 14.8819 29.5776 16.7884 29.5796 18.7769Z" fill="white"/>
<path d="M35.8296 18.7769H38.3296C38.3246 14.4687 36.611 10.3383 33.5646 7.29193C30.5182 4.24554 26.3878 2.53189 22.0796 2.52693V5.02693C25.725 5.03123 29.2199 6.48127 31.7976 9.05896C34.3753 11.6367 35.8253 15.1315 35.8296 18.7769Z" fill="white"/>
</svg>
