<svg width="50" height="50" viewBox="0 0 50 50" fill="none" xmlns="http://www.w3.org/2000/svg">
<path d="M0 6.0039C0 2.69019 2.68629 0.00390625 6 0.00390625H22.8212V16.8251C22.8212 20.1388 20.1349 22.8251 16.8212 22.8251H0V6.0039Z" fill="white"/>
<path d="M0 44.0039C0 47.3176 2.68629 50.0039 6 50.0039H22.8212V33.1827C22.8212 29.869 20.1349 27.1827 16.8212 27.1827H0V44.0039Z" fill="#004F4C"/>
<path d="M27.1797 16.8203C27.1797 20.134 29.866 22.8203 33.1797 22.8203H50.0009V5.99909C50.0009 2.68539 47.3146 -0.000902176 44.0009 -0.000902176H27.1797V16.8203Z" fill="#004F4C"/>
<path d="M27.1797 33.1836C27.1797 29.8699 29.866 27.1836 33.1797 27.1836H50.0009V44.0048C50.0009 47.3185 47.3146 50.0048 44.0009 50.0048H27.1797V33.1836Z" fill="white"/>
</svg>
