<svg width="31" height="31" viewBox="0 0 31 31" fill="none" xmlns="http://www.w3.org/2000/svg">
<g clip-path="url(#clip0_215_61)">
<path d="M21.4578 24.1257C21.1343 24.1257 20.8718 24.3882 20.8718 24.7117C20.8718 25.0351 21.1343 25.2976 21.4578 25.2976C21.7812 25.2976 22.0437 25.0351 22.0437 24.7117C22.0437 24.3882 21.7812 24.1257 21.4578 24.1257Z" fill="white"/>
<path d="M22.9005 22.231L20.1155 21.3029L19.1157 19.3032C20.0164 18.3865 20.6418 17.1735 20.8527 15.9083L20.9774 15.1609H22.0437C23.013 15.1609 23.8015 14.3723 23.8015 13.4031V9.71167C23.8015 4.86538 19.8587 0.922607 15.0125 0.922607C10.1537 0.922607 6.22339 4.85407 6.22339 9.71167V13.4031C6.22339 14.1669 6.71329 14.8182 7.39526 15.0601V15.7468C7.39526 16.7161 8.18382 17.5046 9.15308 17.5046H9.66765C9.92165 18.0564 10.2504 18.5675 10.6505 19.0266C10.7335 19.1219 10.82 19.2144 10.9087 19.3043L9.9094 21.3029L7.12438 22.231C3.8862 23.3108 1.53589 26.7197 1.53589 30.3367C1.53589 30.6603 1.79821 30.9226 2.12183 30.9226H27.9031C28.2266 30.9226 28.489 30.6603 28.489 30.3367C28.489 26.7197 26.1388 23.3108 22.9005 22.231ZM22.6296 13.4031C22.6296 13.7262 22.3668 13.989 22.0437 13.989H21.1494C21.2984 12.8353 21.3976 11.6076 21.4375 10.3984C21.4387 10.3643 21.4397 10.3311 21.4407 10.2976H22.6296V13.4031ZM7.9812 13.989C7.65812 13.989 7.39526 13.7262 7.39526 13.4031V10.2976H8.5846C8.58653 10.3587 8.58858 10.4201 8.59087 10.4819C8.59093 10.4841 8.59104 10.4861 8.5911 10.4882C8.5911 10.4884 8.5911 10.4886 8.5911 10.4887C8.63212 11.6648 8.73009 12.8607 8.87563 13.989H7.9812V13.989ZM9.15308 16.3328C8.82999 16.3328 8.56714 16.0699 8.56714 15.7468V15.1609H9.04749L9.17218 15.9085C9.19597 16.0506 9.2252 16.1921 9.25901 16.3328H9.15308ZM8.56813 9.12573H7.41753C7.71431 5.19872 10.9916 2.09448 15.0125 2.09448C19.0155 2.09448 22.3071 5.19831 22.6073 9.12573H21.4568C21.4146 5.88978 18.7795 3.26636 15.5369 3.26636H14.4881C11.2456 3.26636 8.61026 5.88978 8.56813 9.12573ZM14.488 4.43823H15.5369C18.1624 4.43823 20.2874 6.58575 20.2859 9.20835C20.2859 9.39274 20.2844 9.55329 20.2813 9.69936C20.2813 9.70124 20.2813 9.70317 20.2813 9.70511L19.5484 9.6004C17.5574 9.3161 15.6774 8.37614 14.2549 6.9536C14.145 6.84374 13.996 6.78198 13.8406 6.78198C12.267 6.78198 10.7607 7.49894 9.76491 8.71019C10.0103 6.32431 12.0273 4.43823 14.488 4.43823ZM10.4738 16.3328C10.1805 15.357 9.84483 12.4859 9.77065 10.6461L10.5593 9.59454C11.2835 8.62915 12.4104 8.02933 13.609 7.96048C15.1862 9.46142 17.2265 10.4526 19.3827 10.7604L20.2453 10.8837C20.1876 12.1075 20.0698 13.3355 19.901 14.4649C19.9009 14.4652 19.9009 14.4656 19.9008 14.466C19.8471 14.8291 19.8048 15.0628 19.6968 15.7155C19.3865 17.5767 17.9977 19.2598 16.1643 19.7182C15.4098 19.9066 14.615 19.9065 13.8608 19.7182C12.7161 19.432 11.6665 18.64 10.9891 17.5046H12.1835C12.4254 18.1866 13.0767 18.6765 13.8406 18.6765H15.0125C15.9836 18.6765 16.7703 17.89 16.7703 16.9187C16.7703 15.9494 15.9817 15.1609 15.0125 15.1609H13.8406C13.0597 15.1609 12.418 15.6653 12.1825 16.3328H10.4738ZM13.7913 20.904C14.1932 20.9887 14.6029 21.032 15.0125 21.032C15.333 21.032 15.6536 21.0051 15.9706 20.9531L14.9353 22.0481L13.7913 20.904ZM14.1297 22.8999L12.2713 24.8652C11.7596 23.8859 11.32 22.8667 10.9594 21.8232L11.6573 20.4274L14.1297 22.8999ZM18.2683 20.2289L19.0654 21.8232C18.7042 22.8684 18.2645 23.888 17.7534 24.8661L15.7642 22.877L18.2683 20.2289ZM13.2546 16.9187C13.2546 16.5952 13.517 16.3328 13.8406 16.3328H15.0125C15.3355 16.3328 15.5984 16.5956 15.5984 16.9187C15.5984 17.2423 15.3359 17.5046 15.0125 17.5046H13.8406C13.5175 17.5046 13.2546 17.2418 13.2546 16.9187ZM2.7312 29.7507C2.96341 26.8481 4.89519 24.2097 7.49499 23.3427L9.96144 22.5208C10.4133 23.7703 10.9731 24.9848 11.6292 26.1384C11.6303 26.1404 11.6314 26.1424 11.6325 26.1443L11.6325 26.1444C12.1119 26.9875 12.6514 27.8114 13.2364 28.5936L13.9572 29.7507H2.7312ZM15.0125 29.2284L14.2178 27.9527C14.2089 27.9384 14.1994 27.9245 14.1893 27.911C13.7148 27.2781 13.2722 26.6161 12.8691 25.9386L14.9587 23.7288L17.1606 25.9307C16.7547 26.6131 16.3106 27.2778 15.8357 27.9109C15.807 27.9492 15.8477 27.8889 15.0125 29.2284ZM16.0677 29.7507L16.7885 28.5936C17.376 27.8085 17.9194 26.978 18.4036 26.125C18.4065 26.1198 18.4092 26.1145 18.4122 26.1094C18.4125 26.1087 18.4129 26.1081 18.4132 26.1075C19.061 24.9649 19.6149 23.761 20.0635 22.5208L22.5299 23.3427C25.1297 24.2097 27.0615 26.8481 27.2937 29.7507H16.0677Z" fill="white"/>
<path d="M25.5327 27.3795C25.1412 26.5957 24.5676 25.8994 23.874 25.3658C23.6175 25.1684 23.2496 25.2164 23.0524 25.4729C22.855 25.7294 22.903 26.0973 23.1595 26.2946C23.7134 26.7208 24.1715 27.277 24.4843 27.9032C24.6292 28.1932 24.9814 28.3099 25.2704 28.1655C25.5598 28.0209 25.6773 27.669 25.5327 27.3795Z" fill="white"/>
</g>
<defs>
<clipPath id="clip0_215_61">
<rect width="30" height="30" fill="white" transform="translate(0.0124512 0.922607)"/>
</clipPath>
</defs>
</svg>
