<svg width="37" height="37" viewBox="0 0 37 37" fill="none" xmlns="http://www.w3.org/2000/svg">
<g clip-path="url(#clip0_313_10)">
<path d="M11.1661 36.5097C11.1091 36.5097 11.0536 36.5082 10.9966 36.5037C10.3426 36.4542 9.74406 36.1212 9.35406 35.5917L6.14256 31.1952C6.02406 31.0407 5.91156 30.9267 5.78706 30.8382L1.08306 27.3672C0.561062 26.9922 0.225062 26.4012 0.169562 25.7562C0.112562 25.0992 0.346562 24.4512 0.813062 23.9742C1.50606 23.2812 2.55906 23.0877 3.44256 23.4837L7.26606 25.1562L14.7031 17.1327C14.9491 16.8717 14.9506 16.5807 14.9296 16.4307C14.8936 16.1712 14.7451 15.9447 14.5216 15.8097L2.01906 9.18425C1.35306 8.78675 0.942062 8.14925 0.856562 7.41875C0.769562 6.69125 1.02156 5.97875 1.54506 5.46575C2.04306 4.96925 2.76906 4.76225 3.43806 4.93025L21.6661 8.77775C21.9631 8.84225 22.2721 8.74775 22.4866 8.52575L29.0206 1.58825C29.6671 0.902746 30.7786 0.511246 32.0701 0.511246C33.3451 0.511246 34.4566 0.892246 35.1211 1.55525C35.7976 2.23175 36.1876 3.41525 36.1651 4.72025C36.1426 5.96975 35.7511 7.04075 35.0881 7.66025L29.7061 12.7422C29.4046 13.0272 28.9291 13.0122 28.6456 12.7122C28.3606 12.4107 28.3741 11.9367 28.6756 11.6517L34.0606 6.56675C34.4146 6.23525 34.6501 5.50175 34.6651 4.69325C34.6801 3.81425 34.4431 2.99825 34.0606 2.61575C33.6931 2.24825 32.9116 2.01125 32.0701 2.01125C31.2151 2.01125 30.4636 2.24375 30.1096 2.61725L23.5711 9.56075C22.9861 10.1652 22.1596 10.4187 21.3511 10.2447L3.10056 6.38975C2.91456 6.34325 2.73306 6.40175 2.60106 6.53225C2.40606 6.72275 2.31606 6.98075 2.34756 7.24475C2.37906 7.51025 2.52756 7.74125 2.75706 7.87925L15.2611 14.5047C15.9121 14.8962 16.3201 15.5157 16.4176 16.2267C16.5136 16.9332 16.2901 17.6352 15.8011 18.1557L8.00556 26.5662C7.78806 26.8017 7.44756 26.8707 7.15506 26.7432L2.83506 24.8532C2.51406 24.7077 2.12556 24.7827 1.88106 25.0272C1.72656 25.1847 1.64556 25.4037 1.66506 25.6242C1.68456 25.8387 1.79106 26.0262 1.96806 26.1537L6.67056 29.6232C6.90756 29.7927 7.12506 30.0072 7.34556 30.2952L10.5661 34.7037C10.6951 34.8792 10.8946 34.9902 11.1121 35.0067C11.3236 35.0232 11.5276 34.9482 11.6806 34.7952C11.9356 34.5477 12.0061 34.1652 11.8666 33.8337L9.97806 29.5212C9.85056 29.2287 9.92106 28.8882 10.1551 28.6722L13.9201 25.1772C14.2216 24.8952 14.6986 24.9117 14.9806 25.2162C15.2626 25.5207 15.2446 25.9947 14.9416 26.2767L11.5666 29.4102L13.2421 33.2427C13.6276 34.1472 13.4221 35.1987 12.7321 35.8677C12.3211 36.2772 11.7556 36.5097 11.1661 36.5097Z" fill="white"/>
<path d="M27.165 36.5112C27.066 36.5112 26.967 36.4917 26.874 36.4512C26.517 36.3027 18.165 32.6922 18.165 25.3152V19.0467C18.165 18.7257 18.3705 18.4392 18.675 18.3357L26.925 15.5502C27.081 15.4977 27.249 15.4977 27.405 15.5502L35.655 18.3357C35.9595 18.4377 36.165 18.7242 36.165 19.0467V25.3152C36.165 32.6922 27.813 36.3027 27.456 36.4527C27.363 36.4917 27.264 36.5112 27.165 36.5112ZM19.665 19.5852V25.3152C19.665 30.9927 25.7475 34.2522 27.165 34.9362C28.581 34.2507 34.665 30.9792 34.665 25.3152V19.5852L27.165 17.0532L19.665 19.5852Z" fill="white"/>
<path d="M26.4149 29.0112C26.4014 29.0112 26.3864 29.0112 26.3729 29.0097C26.1599 28.9977 25.9619 28.8957 25.8284 28.7292L22.8284 24.9792C22.5704 24.6552 22.6229 24.1842 22.9454 23.9247C23.2694 23.6667 23.7419 23.7192 23.9999 24.0417L26.4764 27.1377L31.1339 22.4802C31.4264 22.1877 31.9019 22.1877 32.1944 22.4802C32.4869 22.7727 32.4869 23.2482 32.1944 23.5407L26.9444 28.7907C26.8049 28.9332 26.6129 29.0112 26.4149 29.0112Z" fill="white"/>
</g>
<defs>
<clipPath id="clip0_313_10">
<rect width="36" height="36" fill="white" transform="translate(0.165039 0.511246)"/>
</clipPath>
</defs>
</svg>
