<svg width="61" height="61" viewBox="0 0 61 61" fill="none" xmlns="http://www.w3.org/2000/svg">
<path d="M24.4832 18.5727H25.4207V10.6621H24.4832C19.4358 10.6691 14.5971 12.6775 11.0284 16.2469C7.4597 19.8163 5.45224 24.6553 5.44629 29.7027V50.534H27.2132V28.7652H13.3907C13.6294 25.9867 14.9011 23.3985 16.9546 21.5116C19.0081 19.6247 21.6944 18.5761 24.4832 18.5727ZM25.3382 30.6421V48.6609H7.32129V29.7027C7.32643 25.314 9.01036 21.0935 12.0278 17.9067C15.0452 14.7198 19.1675 12.808 23.5494 12.5634V16.724C20.2722 16.9643 17.207 18.4348 14.9686 20.8405C12.7302 23.2462 11.484 26.4092 11.48 29.6952V30.6327L25.3382 30.6421Z" fill="#009A5E"/>
<path d="M41.5048 28.7652C41.7431 25.9863 43.0145 23.3977 45.0681 21.5104C47.1217 19.6231 49.8082 18.5743 52.5973 18.5709H53.5348V10.6621H52.5973C47.5491 10.6676 42.7092 12.6754 39.1395 16.245C35.5699 19.8146 33.5621 24.6545 33.5566 29.7027V50.534H55.3216V28.7652H41.5048ZM53.4466 48.6609H35.4279V29.7027C35.433 25.3143 37.1167 21.0941 40.1337 17.9073C43.1507 14.7205 47.2726 12.8085 51.6541 12.5634V16.724C48.3769 16.9643 45.3117 18.4348 43.0733 20.8405C40.8349 23.2462 39.5887 26.4092 39.5848 29.6952V30.6327H53.4466V48.6609Z" fill="#009A5E"/>
</svg>
