<svg width="35" height="35" viewBox="0 0 35 35" fill="none" xmlns="http://www.w3.org/2000/svg">
<g clip-path="url(#clip0_274_1799)">
<path d="M34.3328 18.9564C34.0315 15.9258 32.6775 13.0687 30.5202 10.9113C28.6766 9.06777 26.4201 7.88308 24.0458 7.35631V5.69099C25.0155 5.44972 25.7364 4.5719 25.7364 3.52852C25.7364 2.29971 24.7367 1.30005 23.5079 1.30005H18.7888C17.56 1.30005 16.5603 2.29971 16.5603 3.52852C16.5603 4.57184 17.2812 5.44966 18.2509 5.69099V7.36096C15.8838 7.88996 13.6347 9.07302 11.7964 10.9114C11.3941 11.3137 11.0231 11.7357 10.6835 12.1743C10.6671 12.1731 10.6506 12.1718 10.6338 12.1718H5.96316C5.60123 12.1718 5.30773 12.4653 5.30773 12.8273C5.30773 13.1893 5.60123 13.4827 5.96316 13.4827H9.79167C9.31111 14.2872 8.92362 15.1322 8.62867 16.0019H1.49528C1.13335 16.0019 0.839844 16.2954 0.839844 16.6574C0.839844 17.0194 1.13335 17.3128 1.49528 17.3128H8.25829C8.06939 18.142 7.96099 18.9858 7.933 19.8321H5.03461C4.67268 19.8321 4.37918 20.1255 4.37918 20.4875C4.37918 20.8495 4.67268 21.1429 5.03461 21.1429H7.95391C8.00923 21.9913 8.14562 22.8353 8.36316 23.6622H4.11701C3.75508 23.6622 3.46157 23.9557 3.46157 24.3177C3.46157 24.6797 3.75508 24.9731 4.11701 24.9731H8.78146C9.42444 26.674 10.4293 28.2682 11.7964 29.6353C13.9558 31.7947 16.8158 33.149 19.8495 33.4487C20.2825 33.4914 20.7158 33.5126 21.1485 33.5126C23.7062 33.5126 26.2313 32.7724 28.3739 31.3771C28.6772 31.1796 28.763 30.7735 28.5655 30.4702C28.3679 30.1669 27.9619 30.0811 27.6586 30.2786C22.9685 33.3327 16.6873 32.6724 12.7233 28.7084C8.07221 24.0573 8.07221 16.4895 12.7233 11.8384C17.3743 7.18734 24.9421 7.18734 29.5933 11.8384C33.552 15.7972 34.216 22.073 31.1719 26.7608C30.9748 27.0644 31.0611 27.4704 31.3646 27.6674C31.6684 27.8646 32.0742 27.7783 32.2713 27.4747C33.8977 24.9699 34.6298 21.9448 34.3328 18.9564ZM17.8712 3.52858C17.8712 3.02259 18.2828 2.61098 18.7888 2.61098H23.5079C24.0139 2.61098 24.4255 3.02259 24.4255 3.52858C24.4255 4.03458 24.0139 4.44619 23.5079 4.44619H23.3903H18.9063H18.7888C18.2828 4.44619 17.8712 4.03451 17.8712 3.52858ZM19.5617 7.13563V5.75705H22.7349V7.13327C21.6812 7.00795 20.6152 7.00873 19.5617 7.13563Z" fill="white"/>
<path d="M30.0568 28.5161C29.8838 28.5161 29.7153 28.5862 29.5935 28.7082C29.4709 28.8301 29.4014 28.9992 29.4014 29.1715C29.4014 29.3439 29.4709 29.513 29.5935 29.6349C29.7153 29.7575 29.8838 29.827 30.0568 29.827C30.2292 29.827 30.3976 29.7575 30.5202 29.6349C30.6421 29.513 30.7122 29.3439 30.7122 29.1715C30.7122 28.9992 30.6421 28.8301 30.5202 28.7082C30.3976 28.5862 30.2291 28.5161 30.0568 28.5161Z" fill="white"/>
<path d="M21.1579 10.1056C15.5515 10.1056 10.9902 14.6667 10.9902 20.2732C10.9902 25.8798 15.5515 30.4409 21.1579 30.4409C26.7643 30.4409 31.3256 25.8798 31.3256 20.2732C31.3256 14.6667 26.7643 10.1056 21.1579 10.1056ZM21.1579 29.13C16.2742 29.13 12.3011 25.1569 12.3011 20.2732C12.3011 15.3896 16.2742 11.4165 21.1579 11.4165C26.0416 11.4165 30.0147 15.3896 30.0147 20.2732C30.0147 25.1569 26.0416 29.13 21.1579 29.13Z" fill="white"/>
<path d="M25.304 15.2004L22.0577 18.4467C21.7862 18.3124 21.4808 18.2366 21.158 18.2366C20.8351 18.2366 20.5298 18.3124 20.2584 18.4467L18.8055 16.9938C18.5494 16.7378 18.1346 16.7378 17.8785 16.9938C17.6225 17.2497 17.6225 17.6647 17.8785 17.9207L19.3314 19.3736C19.1971 19.6451 19.1213 19.9504 19.1213 20.2732C19.1213 21.3963 20.0349 22.3099 21.158 22.3099C22.2811 22.3099 23.1947 21.3963 23.1947 20.2732C23.1947 19.9504 23.1189 19.6451 22.9846 19.3736L26.1357 16.2225L26.2309 16.1273C26.4869 15.8713 26.4869 15.4563 26.2309 15.2004C25.975 14.9444 25.5601 14.9444 25.304 15.2004ZM21.158 20.9991C20.7578 20.9991 20.4322 20.6735 20.4322 20.2733C20.4322 19.8731 20.7578 19.5475 21.158 19.5475C21.5582 19.5475 21.8838 19.8731 21.8838 20.2733C21.8838 20.6735 21.5582 20.9991 21.158 20.9991Z" fill="white"/>
<path d="M28.166 19.6259H27.5587C27.1968 19.6259 26.9033 19.9193 26.9033 20.2813C26.9033 20.6433 27.1968 20.9367 27.5587 20.9367H28.166C28.5279 20.9367 28.8214 20.6433 28.8214 20.2813C28.8214 19.9193 28.5279 19.6259 28.166 19.6259Z" fill="white"/>
<path d="M14.7577 19.6099H14.1505C13.7886 19.6099 13.4951 19.9033 13.4951 20.2653C13.4951 20.6273 13.7886 20.9207 14.1505 20.9207H14.7577C15.1196 20.9207 15.4131 20.6273 15.4131 20.2653C15.4131 19.9033 15.1196 19.6099 14.7577 19.6099Z" fill="white"/>
<path d="M21.1662 14.528C21.5281 14.528 21.8216 14.2346 21.8216 13.8726V13.2654C21.8216 12.9034 21.5281 12.61 21.1662 12.61C20.8042 12.61 20.5107 12.9034 20.5107 13.2654V13.8726C20.5107 14.2346 20.8042 14.528 21.1662 14.528Z" fill="white"/>
<path d="M21.1505 26.0184C20.7886 26.0184 20.4951 26.3119 20.4951 26.6739V27.281C20.4951 27.643 20.7886 27.9365 21.1505 27.9365C21.5125 27.9365 21.806 27.643 21.806 27.281V26.6739C21.806 26.3119 21.5125 26.0184 21.1505 26.0184Z" fill="white"/>
<path d="M1.49527 23.662C1.32289 23.662 1.15379 23.7321 1.03188 23.854C0.909974 23.9759 0.839844 24.145 0.839844 24.3174C0.839844 24.4904 0.909908 24.6589 1.03188 24.7808C1.15386 24.9027 1.32289 24.9728 1.49527 24.9728C1.66764 24.9728 1.83674 24.9027 1.95858 24.7808C2.08049 24.6589 2.15069 24.4898 2.15069 24.3174C2.15069 24.145 2.08056 23.9759 1.95858 23.854C1.83674 23.7321 1.66764 23.662 1.49527 23.662Z" fill="white"/>
</g>
<defs>
<clipPath id="clip0_274_1799">
<rect width="33.5576" height="33.5576" fill="white" transform="translate(0.839844 0.627441)"/>
</clipPath>
</defs>
</svg>
