<svg width="37" height="37" viewBox="0 0 37 37" fill="none" xmlns="http://www.w3.org/2000/svg">
<g clip-path="url(#clip0_265_1725)">
<path d="M20.3314 10.9797C20.9193 10.9797 21.3958 10.5031 21.3958 9.91531C21.3958 9.32748 20.9193 8.85095 20.3314 8.85095C19.7436 8.85095 19.2671 9.32748 19.2671 9.91531C19.2671 10.5031 19.7436 10.9797 20.3314 10.9797Z" fill="#286C5E"/>
<path d="M24.5888 10.9797C25.1766 10.9797 25.6531 10.5031 25.6531 9.91531C25.6531 9.32748 25.1766 8.85095 24.5888 8.85095C24.0009 8.85095 23.5244 9.32748 23.5244 9.91531C23.5244 10.5031 24.0009 10.9797 24.5888 10.9797Z" fill="#286C5E"/>
<path d="M28.8461 10.9797C29.4339 10.9797 29.9104 10.5031 29.9104 9.91531C29.9104 9.32748 29.4339 8.85095 28.8461 8.85095C28.2583 8.85095 27.7817 9.32748 27.7817 9.91531C27.7817 10.5031 28.2583 10.9797 28.8461 10.9797Z" fill="#286C5E"/>
<path d="M23.9652 34.3955C25.7175 34.3955 27.1432 32.9631 27.1432 31.2024V26.945C27.1432 26.4871 26.8503 26.0806 26.4162 25.9355L20.0451 23.8068C19.7332 23.7026 19.391 23.7484 19.1174 23.9307L16.4081 25.7369C13.5004 24.3572 10.0638 20.951 8.69684 18.0949L10.5024 15.3866C10.6847 15.1131 10.7305 14.7707 10.6263 14.4589L8.49759 8.08787C8.35248 7.65361 7.94597 7.36084 7.48809 7.36084H3.23066C1.47001 7.36084 0.0375977 8.78644 0.0375977 10.5388C0.0375977 16.4195 2.71154 22.455 7.37384 27.0978C12.031 31.7356 18.0784 34.3955 23.9652 34.3955ZM3.23066 9.48955H6.72154L8.44224 14.6393L6.60254 17.3988C6.40812 17.6905 6.36973 18.0591 6.49994 18.3845C7.20773 20.154 8.62418 22.1441 10.4883 23.9883C12.3401 25.8204 14.34 27.2214 16.1195 27.9331C16.4448 28.0633 16.8136 28.0249 17.1052 27.8305L19.8648 25.9908L25.0145 27.7115V31.2024C25.0145 31.7992 24.5536 32.2668 23.9652 32.2668C12.7602 32.2668 2.16631 21.7074 2.16631 10.5388C2.16631 9.95042 2.63384 9.48955 3.23066 9.48955Z" fill="#286C5E"/>
<path d="M19.9241 21.5422C20.3217 21.7069 20.7796 21.6158 21.084 21.3115L25.0296 17.3658H28.8462C32.9935 17.3658 36.3676 14.0235 36.3676 9.9153C36.3676 5.8071 32.9935 2.46481 28.8462 2.46481H20.3313C16.2231 2.46481 12.8809 5.8071 12.8809 9.9153C12.8809 13.6622 15.6612 16.772 19.267 17.29V20.5589C19.267 20.9894 19.5263 21.3774 19.9241 21.5422ZM15.0096 9.9153C15.0096 6.98087 17.3969 4.59352 20.3313 4.59352H28.8462C31.8197 4.59352 34.2389 6.98087 34.2389 9.9153C34.2389 12.8497 31.8197 15.2371 28.8462 15.2371H24.5888C24.3064 15.2371 24.0357 15.3492 23.8362 15.5488L21.3957 17.9893V16.3014C21.3957 15.7136 20.9192 15.2371 20.3313 15.2371C17.3969 15.2371 15.0096 12.8497 15.0096 9.9153Z" fill="#286C5E"/>
</g>
<defs>
<clipPath id="clip0_265_1725">
<rect width="36.33" height="36.33" fill="white" transform="translate(0.0375977 0.265137)"/>
</clipPath>
</defs>
</svg>
