<svg width="31" height="31" viewBox="0 0 31 31" fill="none" xmlns="http://www.w3.org/2000/svg">
<path fill-rule="evenodd" clip-rule="evenodd" d="M24.9024 17.7554C24.2939 17.1468 23.453 16.7703 22.5243 16.7703C21.5956 16.7703 20.7548 17.1468 20.1462 17.7553C19.5377 18.3639 19.1613 19.2047 19.1613 20.1335C19.1613 21.0622 19.5377 21.903 20.1462 22.5115C20.7548 23.1201 21.5956 23.4965 22.5243 23.4965C23.453 23.4965 24.2939 23.1201 24.9024 22.5115C25.511 21.903 25.8874 21.0622 25.8874 20.1335C25.8874 19.2047 25.511 18.3639 24.9024 17.7554ZM22.5243 16.0218C23.6597 16.0218 24.6876 16.482 25.4317 17.2261C26.1758 17.9702 26.636 18.9981 26.636 20.1335C26.636 21.2688 26.1758 22.2967 25.4317 23.0408C24.6876 23.7849 23.6597 24.2452 22.5243 24.2452C21.389 24.2452 20.361 23.7849 19.617 23.0408C18.8729 22.2967 18.4127 21.2688 18.4127 20.1335C18.4127 18.9981 18.8729 17.9701 19.617 17.2261C20.361 16.482 21.389 16.0218 22.5243 16.0218V16.0218ZM26.2617 25.0116C26.1967 25.0945 26.1337 25.2022 26.0706 25.31C25.9039 25.5946 25.7366 25.8803 25.4149 26.0381C25.0934 26.1957 24.7666 26.155 24.4379 26.1141C24.3639 26.1049 24.2898 26.0956 24.219 26.0896L25.7094 28.7036L26.0972 27.5556C26.158 27.3738 26.3453 27.27 26.5284 27.3091L26.5285 27.3086L27.7144 27.5596L26.2616 25.0117L26.2617 25.0116ZM22.7259 19.721C22.7813 19.8569 22.9076 19.9424 23.0448 19.9522L23.0446 19.9534L23.573 19.9925L23.1676 20.3354C23.0507 20.4343 23.0098 20.5897 23.051 20.7275L23.1733 21.2265L22.7201 20.9458C22.5937 20.8678 22.4389 20.8743 22.3218 20.9498L21.8752 21.2265L22.0023 20.7081C22.0365 20.5663 21.9849 20.4239 21.8807 20.3356L21.8809 20.3353L21.4756 19.9924L22.0039 19.9533C22.1618 19.9422 22.2898 19.8345 22.3344 19.6921L22.5243 19.2274L22.7259 19.7208L22.7259 19.721ZM22.8693 18.1024L23.328 19.2248L24.5386 19.3143C24.7445 19.3288 24.8997 19.5075 24.8851 19.7134C24.8774 19.8233 24.8229 19.9186 24.7425 19.9815L23.8263 20.7565L24.1156 21.9364C24.164 22.1367 24.041 22.3383 23.8407 22.3867C23.736 22.412 23.631 22.3904 23.5476 22.3355L22.5243 21.7017L21.4916 22.3414C21.3164 22.4495 21.0866 22.3952 20.9784 22.22C20.924 22.1319 20.9107 22.0298 20.9333 21.9364H20.9332L21.2224 20.7565L20.2952 19.9723C20.1377 19.839 20.1181 19.6034 20.2513 19.4459C20.319 19.3659 20.4132 19.3215 20.5101 19.3147V19.3144L21.7207 19.2249L22.1793 18.1025C22.2568 17.912 22.4742 17.8203 22.6647 17.8979C22.7616 17.9372 22.8328 18.0128 22.8694 18.1025L22.8693 18.1024ZM16.0454 7.798C16.1957 7.66242 16.3239 7.50216 16.3096 7.39693C16.3061 7.37132 16.3054 7.34601 16.3071 7.32123C16.3621 5.42671 16.1546 4.10085 15.6846 3.34388C15.2751 2.68441 14.6221 2.49298 13.7256 2.76966C13.6683 2.7873 13.61 2.79041 13.5546 2.78109V2.78132C11.2744 2.39742 9.70776 2.64568 8.85464 3.52617C8.08021 4.32544 7.86206 5.68236 8.20009 7.5965C8.44249 7.39189 8.65103 7.18294 8.82552 6.96949C9.09224 6.6433 9.27739 6.30878 9.38081 5.96613C9.43976 5.76832 9.64794 5.6557 9.84575 5.71464C9.85437 5.71722 9.86286 5.72009 9.87118 5.7232C10.7011 6.01435 11.5173 6.09521 12.3196 5.96566C13.129 5.835 13.9323 5.48865 14.7295 4.92679C14.8982 4.80808 15.1313 4.84869 15.25 5.01744C15.2683 5.04345 15.2827 5.07093 15.2936 5.09935C15.5292 5.61878 15.7124 6.13968 15.8431 6.66222C15.9369 7.03769 16.0044 7.41632 16.0454 7.79794L16.0454 7.798ZM16.1823 8.62552C16.1491 8.64474 16.1163 8.66191 16.0845 8.67679V10.5062C16.1197 10.4591 16.1569 10.4077 16.1954 10.3534C16.3691 10.1083 16.5247 9.8005 16.6165 9.49664C16.6969 9.2305 16.7248 8.98265 16.6616 8.81748C16.618 8.70357 16.4935 8.62904 16.2512 8.63132C16.2277 8.6315 16.2046 8.62951 16.1822 8.62546L16.1823 8.62552ZM7.97005 8.63091C7.96155 8.63132 7.95312 8.6315 7.94468 8.63132C7.70526 8.62998 7.58204 8.70427 7.53868 8.81748C7.47546 8.98265 7.50335 9.2305 7.58374 9.49664C7.67562 9.8005 7.83118 10.1083 8.0048 10.3534C8.04013 10.4033 8.07446 10.4507 8.1071 10.4947V8.59757L8.1054 8.59833L8.10482 8.59857L8.10118 8.60015L8.1003 8.60056L8.09907 8.60109L8.09802 8.60156C8.06292 8.6165 8.02513 8.62628 7.98558 8.6298H7.98528L7.983 8.63003L7.98042 8.63027L7.97784 8.63044L7.97263 8.63074L7.97005 8.63091ZM15.336 8.28732L15.3359 8.29605V10.5742C15.3359 11.3565 15.0155 12.0681 14.4994 12.5842C13.9833 13.1003 13.2718 13.4207 12.4895 13.4207H11.7021C10.9198 13.4207 10.2083 13.1003 9.69218 12.5842C9.17608 12.0681 8.85575 11.3566 8.85575 10.5743V8.01603C9.06218 7.82912 9.24511 7.63816 9.40448 7.44328C9.64308 7.15148 9.83005 6.84972 9.96552 6.53806C10.7971 6.77953 11.6208 6.83443 12.4365 6.70271C13.2303 6.57457 14.0107 6.27087 14.7778 5.79164C14.9161 6.13921 15.0294 6.4899 15.1178 6.84363C15.2378 7.32351 15.3106 7.80474 15.3361 8.28738L15.336 8.28732ZM10.1024 18.1989L11.547 16.8679L8.95308 14.5644L8.39567 15.0958L10.1024 18.1989ZM12.1033 16.3646L9.96792 14.4683L10.2734 13.8716C10.7118 14.063 11.1951 14.1693 11.7021 14.1693H12.4895C12.9965 14.1693 13.4798 14.063 13.9183 13.8716L14.2283 14.4773L12.1033 16.3646ZM13.5316 17.6713C13.5396 17.6757 13.5476 17.6803 13.5554 17.6853C13.6021 17.7151 13.6399 17.7535 13.6682 17.7972L14.1042 18.1989L15.8109 15.0958L15.2535 14.5644L12.6597 16.8679L13.5317 17.6714L13.5316 17.6713ZM12.5741 19.3529H11.651C11.2299 21.1078 10.8091 22.8629 10.3882 24.6179L12.1125 26.5564L13.8369 24.6179C13.4159 22.8629 12.9952 21.1078 12.5741 19.3529ZM11.6974 18.6043L11.3523 18.063L12.1033 17.3712L12.8658 18.0738L12.5276 18.6043H11.6974H11.6974ZM18.8084 25.0399H18.7709L17.3343 27.5596L18.5201 27.3085L18.5203 27.309C18.7034 27.2699 18.8906 27.3738 18.9515 27.5556L19.3393 28.7036L20.8297 26.0896C20.759 26.0955 20.6848 26.1048 20.6108 26.114C20.2822 26.155 19.9553 26.1957 19.6338 26.038C19.3121 25.8802 19.1448 25.5946 18.9782 25.3099C18.922 25.214 18.8659 25.1182 18.8085 25.0398L18.8084 25.0399ZM19.2112 24.3738C19.1949 24.3591 19.1782 24.3448 19.1608 24.3309C19.0539 24.245 18.9366 24.1829 18.8145 24.132C18.8087 24.1295 18.8029 24.1271 18.797 24.1248C18.6902 24.0814 18.5798 24.0461 18.4693 24.0108C18.2645 23.9454 18.0595 23.8799 17.9773 23.7775C17.8958 23.6759 17.8758 23.461 17.8559 23.2457C17.8324 22.992 17.8088 22.7378 17.6917 22.4991C17.5755 22.2622 17.3933 22.0895 17.21 21.9159C17.0477 21.7622 16.8843 21.6074 16.852 21.4701C16.8196 21.3318 16.8953 21.1174 16.9718 20.9007C17.0589 20.6542 17.1467 20.4056 17.1467 20.1335C17.1467 19.8613 17.0589 19.6127 16.9718 19.3662C16.8953 19.1495 16.8196 18.9352 16.852 18.7968C16.8843 18.6595 17.0477 18.5047 17.21 18.351C17.3932 18.1774 17.5755 18.0048 17.6917 17.7678C17.8088 17.5291 17.8324 17.275 17.8559 17.0212C17.8758 16.8059 17.8958 16.5911 17.9773 16.4894C18.0595 16.3871 18.2645 16.3216 18.4693 16.2561C18.7126 16.1784 18.9557 16.1006 19.1608 15.936C19.3649 15.7723 19.493 15.5535 19.6214 15.3342C19.7317 15.1458 19.8424 14.9568 19.9613 14.8985C20.0792 14.8406 20.2991 14.868 20.5201 14.8956C20.7736 14.9272 21.0284 14.9589 21.29 14.8975C21.5442 14.8379 21.7566 14.701 21.971 14.5628C22.1677 14.4361 22.3668 14.3077 22.5243 14.3077C22.6819 14.3077 22.881 14.4361 23.0777 14.5628C23.2921 14.701 23.5044 14.8379 23.7586 14.8975C24.0203 14.9589 24.275 14.9272 24.5285 14.8956C24.7496 14.868 24.9694 14.8407 25.0873 14.8985C25.2062 14.9568 25.3169 15.1458 25.4272 15.3342C25.5557 15.5535 25.6838 15.7723 25.8878 15.936C26.093 16.1007 26.3361 16.1784 26.5793 16.2561C26.7842 16.3215 26.9892 16.387 27.0713 16.4894C27.1529 16.5911 27.1729 16.806 27.1928 17.0212C27.2163 17.275 27.2399 17.5291 27.3569 17.7678C27.4732 18.0048 27.6554 18.1774 27.8387 18.351C28.0009 18.5047 28.1644 18.6595 28.1966 18.7968C28.2291 18.9352 28.1534 19.1495 28.0768 19.3662C27.9898 19.6127 27.9019 19.8613 27.9019 20.1335C27.9019 20.4056 27.9898 20.6542 28.0768 20.9007C28.1534 21.1174 28.2291 21.3317 28.1966 21.4701C28.1644 21.6074 28.001 21.7622 27.8387 21.9159C27.6554 22.0895 27.4731 22.2622 27.3569 22.4991C27.2398 22.7378 27.2163 22.9919 27.1928 23.2457C27.1728 23.4609 27.1529 23.6759 27.0713 23.7775C26.9892 23.8799 26.7842 23.9454 26.5793 24.0108C26.4687 24.0462 26.3582 24.0815 26.2512 24.125C26.2455 24.1272 26.2399 24.1295 26.2342 24.132C26.112 24.1829 25.9948 24.2451 25.8878 24.3309C25.6838 24.4947 25.5557 24.7135 25.4272 24.9328C25.317 25.1212 25.2063 25.3102 25.0873 25.3685C24.9694 25.4263 24.7496 25.3989 24.5285 25.3714C24.275 25.3398 24.0203 25.308 23.7585 25.3694C23.5044 25.4291 23.2921 25.566 23.0777 25.7041C22.881 25.8309 22.6819 25.9593 22.5243 25.9593C22.3668 25.9593 22.1676 25.8309 21.971 25.7041C21.7566 25.566 21.5442 25.429 21.29 25.3694C21.0283 25.308 20.7736 25.3398 20.5201 25.3714C20.2991 25.3989 20.0792 25.4263 19.9613 25.3685C19.8424 25.3102 19.7317 25.1212 19.6214 24.9328C19.5141 24.7495 19.407 24.5666 19.2556 24.4159C19.2419 24.4007 19.2271 24.3867 19.2112 24.3738V24.3738ZM14.525 24.2913H17.4346C17.4213 24.2766 17.4082 24.2613 17.3954 24.2454C17.174 23.9695 17.1436 23.6415 17.1131 23.313C17.096 23.1278 17.0787 22.9421 17.0221 22.8267C16.9669 22.7142 16.8315 22.586 16.6953 22.457C16.4521 22.2266 16.2072 21.9946 16.1239 21.6398C16.0418 21.2899 16.1538 20.9729 16.267 20.6523C16.3323 20.4676 16.3981 20.2813 16.3981 20.1336C16.3981 19.9859 16.3323 19.7995 16.267 19.6148C16.1538 19.2942 16.0418 18.9772 16.1239 18.6274C16.2072 18.2725 16.4521 18.0405 16.6953 17.8102C16.8315 17.6812 16.9669 17.5529 17.0221 17.4404C17.0787 17.3249 17.096 17.1393 17.1131 16.9542C17.1436 16.6256 17.174 16.2977 17.3954 16.0218C17.4922 15.9012 17.6068 15.8141 17.7315 15.746C17.63 15.7109 17.5274 15.6783 17.4237 15.6482C17.1142 15.5586 16.7954 15.4917 16.4691 15.4496L14.5292 18.9767C14.4299 19.1576 14.2027 19.2237 14.0218 19.1244C13.9913 19.1075 13.964 19.0871 13.9402 19.0638L13.4228 18.5871L13.2295 18.8902L14.525 24.2915V24.2913ZM9.76284 25.0399H1.75149C1.54478 25.0399 1.3772 24.8723 1.3772 24.6656V21.8146C1.3772 19.96 2.09274 18.2633 3.26163 16.9864C4.40228 15.7406 5.97405 14.8958 7.73333 14.6956L8.68642 13.7868L8.68671 13.7872C8.8254 13.6549 9.04466 13.6488 9.19079 13.7781L9.39218 13.957L9.62415 13.5038C9.45962 13.3866 9.30534 13.256 9.16284 13.1135C8.71771 12.6683 8.388 12.1076 8.22376 11.4816C7.93735 11.3913 7.64345 11.1318 7.39653 10.7832C7.1761 10.472 6.9804 10.0873 6.86726 9.71302C6.74274 9.30105 6.71192 8.88503 6.83972 8.5514C6.9521 8.25796 7.16397 8.03759 7.5054 7.94039C7.06724 5.66308 7.33847 4.01806 8.31939 3.00574C9.34267 1.94964 11.1005 1.62468 13.5925 2.03056C14.8125 1.68041 15.7213 1.9865 16.319 2.94914C16.8665 3.83103 17.1111 5.29195 17.0529 7.33171C17.0707 7.54927 16.9804 7.78201 16.8413 7.993C17.0981 8.10621 17.265 8.30255 17.3603 8.5514C17.4881 8.88503 17.4573 9.30105 17.3328 9.71302C17.2197 10.0873 17.024 10.4721 16.8035 10.7832C16.5539 11.1356 16.2563 11.3968 15.967 11.4844C15.8025 12.1093 15.4731 12.669 15.0287 13.1135C14.8862 13.256 14.7319 13.3866 14.5674 13.5038L14.804 13.966L15.0156 13.7781C15.1617 13.6488 15.381 13.655 15.5197 13.7872L15.52 13.7869L16.4766 14.6991C16.872 14.7451 17.2578 14.8235 17.6312 14.9317C18.0028 15.0394 18.3628 15.1768 18.7081 15.3412C18.8015 15.2582 18.8896 15.1077 18.9779 14.9569C19.1446 14.6723 19.3119 14.3866 19.6336 14.2288C19.9551 14.0712 20.2819 14.1119 20.6105 14.1528C20.7996 14.1764 20.9895 14.2001 21.1202 14.1694C21.249 14.1392 21.4074 14.0371 21.5673 13.9341C21.8564 13.7477 22.1491 13.5591 22.5241 13.5591C22.8992 13.5591 23.1919 13.7477 23.481 13.9341C23.6409 14.0371 23.7992 14.1391 23.9281 14.1694C24.0587 14.2 24.2487 14.1763 24.4378 14.1528C24.7665 14.1118 25.0933 14.0712 25.4147 14.2288C25.7364 14.3866 25.9037 14.6722 26.0704 14.9569C26.1635 15.1158 26.2564 15.2745 26.3555 15.3541C26.4549 15.4338 26.6296 15.4897 26.8043 15.5455C27.118 15.6458 27.432 15.7461 27.653 16.0215C27.8745 16.2974 27.9049 16.6254 27.9353 16.9539C27.9525 17.1391 27.9697 17.3247 28.0264 17.4402C28.0815 17.5527 28.217 17.681 28.3532 17.8099C28.5964 18.0402 28.8413 18.2722 28.9246 18.6271C29.0067 18.977 28.8947 19.294 28.7814 19.6146C28.7162 19.7993 28.6504 19.9856 28.6504 20.1333C28.6504 20.2811 28.7162 20.4674 28.7814 20.6521C28.8947 20.9727 29.0067 21.2897 28.9246 21.6395C28.8413 21.9944 28.5964 22.2264 28.3532 22.4568C28.217 22.5857 28.0816 22.714 28.0264 22.8265C27.9697 22.942 27.9525 23.1276 27.9353 23.3127C27.9049 23.6413 27.8745 23.9692 27.653 24.2452C27.462 24.4832 27.2015 24.5905 26.9317 24.68L28.7662 27.8974C28.8165 27.9769 28.8371 28.0754 28.8161 28.1747C28.7733 28.3766 28.5749 28.5056 28.373 28.4628L26.698 28.1082L26.1527 29.7226C26.1253 29.8094 26.0664 29.8865 25.981 29.935C25.8018 30.0367 25.574 29.9739 25.4722 29.7946L23.4938 26.3246L23.4812 26.3327C23.1921 26.5191 22.8993 26.7078 22.5243 26.7078C22.1492 26.7078 21.8564 26.5191 21.5674 26.3327L21.5548 26.3246L19.5763 29.7946C19.4746 29.9738 19.2468 30.0367 19.0675 29.935C18.9822 29.8865 18.9232 29.8094 18.8958 29.7226L18.3505 28.1082L16.6754 28.4628C16.4736 28.5056 16.2752 28.3766 16.2324 28.1747C16.2114 28.0754 16.2319 27.9769 16.2823 27.8974L17.9116 25.0397H14.4622L12.3954 27.3633C12.3922 27.3669 12.389 27.3705 12.3856 27.3741L12.3847 27.3749L12.3795 27.3803L12.3768 27.3831L12.374 27.3858L12.3686 27.3911L12.3677 27.3919C12.3423 27.4158 12.3142 27.4355 12.2844 27.4509L12.283 27.4516L12.2773 27.4544L12.2741 27.456L12.2707 27.4576L12.2654 27.46L12.2629 27.4611L12.257 27.4636L12.255 27.4645C12.219 27.4794 12.1812 27.4883 12.1432 27.4914H12.143L12.1344 27.4919H12.1335C12.1279 27.4923 12.1224 27.4925 12.1168 27.4926H12.1162H12.1086H12.1081C12.1025 27.4925 12.0969 27.4923 12.0914 27.492H12.0905L12.0819 27.4914H12.0817C12.0436 27.4883 12.0059 27.4793 11.9698 27.4645L11.9678 27.4636L11.962 27.4611L11.9595 27.46L11.9541 27.4576L11.9508 27.456L11.9475 27.4544L11.9418 27.4516L11.9405 27.4509C11.9107 27.4355 11.8826 27.4158 11.8571 27.3919L11.8562 27.3911L11.8508 27.3858L11.8481 27.3831L11.8453 27.3803L11.8401 27.3749L11.8392 27.3741C11.8359 27.3705 11.8326 27.3669 11.8294 27.3633L9.76267 25.0397L9.76284 25.0399ZM2.12579 24.2913V21.8147C2.12579 20.1514 2.76581 18.6315 3.81142 17.4895C4.81483 16.3934 6.19255 15.6442 7.73714 15.4489L9.67735 18.9765C9.77667 19.1574 10.0038 19.2235 10.1847 19.1242C10.2153 19.1074 10.2426 19.0869 10.2664 19.0636L10.7954 18.5762L10.9955 18.89L9.70003 24.2913H2.12579Z" fill="white"/>
</svg>
