<svg width="31" height="31" viewBox="0 0 31 31" fill="none" xmlns="http://www.w3.org/2000/svg">
<g clip-path="url(#clip0_177_506)">
<path d="M20.2321 16.8794L17.7195 19.4004C16.7007 20.4229 14.9079 20.4449 13.867 19.4004L11.3543 16.8794L2.32996 25.9331C2.66587 26.0884 3.03625 26.1811 3.43 26.1811H28.1566C28.5503 26.1811 28.9206 26.0885 29.2564 25.9331L20.2321 16.8794Z" fill="white"/>
<path d="M28.1566 5.0874H3.43C3.03625 5.0874 2.66588 5.1801 2.33008 5.33543L11.9733 15.0106C11.9739 15.0113 11.9747 15.0114 11.9753 15.012C11.976 15.0127 11.9761 15.0135 11.9761 15.0135L15.1116 18.1594C15.4446 18.4925 16.142 18.4925 16.4751 18.1594L19.61 15.0141C19.61 15.0141 19.6107 15.0127 19.6114 15.012C19.6114 15.012 19.6128 15.0113 19.6134 15.0106L29.2564 5.33537C28.9206 5.17998 28.5503 5.0874 28.1566 5.0874Z" fill="white"/>
<path d="M1.07376 6.56445C0.899976 6.9159 0.793335 7.30602 0.793335 7.72391V23.5442C0.793335 23.9621 0.899858 24.3522 1.07371 24.7037L10.1137 15.6344L1.07376 6.56445Z" fill="white"/>
<path d="M30.5129 6.56445L21.473 15.6345L30.5129 24.7039C30.6867 24.3525 30.7934 23.9623 30.7934 23.5443V7.72402C30.7934 7.30602 30.6867 6.9159 30.5129 6.56445Z" fill="white"/>
</g>
<defs>
<clipPath id="clip0_177_506">
<rect width="30" height="30" fill="white" transform="translate(0.793335 0.634277)"/>
</clipPath>
</defs>
</svg>
