<svg width="34" height="34" viewBox="0 0 34 34" fill="none" xmlns="http://www.w3.org/2000/svg">
<path d="M2.80732 17.4062C2.80695 14.8241 3.53375 12.2941 4.9045 10.1059C6.27526 7.91771 8.23454 6.15977 10.558 5.0334C12.8815 3.90702 15.4752 3.45775 18.0421 3.73702C20.609 4.01629 23.0455 5.01282 25.0723 6.61249H22.9808C22.7996 6.61425 22.6264 6.68745 22.4989 6.81619C22.3714 6.94493 22.2999 7.11879 22.2999 7.29998C22.2999 7.48117 22.3714 7.65504 22.4989 7.78378C22.6264 7.91251 22.7996 7.98572 22.9808 7.98747H26.8698C27.0521 7.98747 27.227 7.91504 27.3559 7.7861C27.4849 7.65717 27.5573 7.48229 27.5573 7.29995V3.41079C27.5582 3.31994 27.5411 3.22983 27.5069 3.14565C27.4728 3.06146 27.4223 2.98489 27.3583 2.92034C27.2944 2.85579 27.2183 2.80455 27.1345 2.76958C27.0506 2.73461 26.9607 2.71661 26.8698 2.71661C26.779 2.71661 26.689 2.73461 26.6052 2.76958C26.5213 2.80455 26.4453 2.85579 26.3813 2.92034C26.3174 2.98489 26.2669 3.06146 26.2327 3.14565C26.1986 3.22983 26.1815 3.31994 26.1823 3.41079V5.73883C23.1845 3.26585 19.3498 2.04166 15.4736 2.32017C11.5974 2.59868 7.97715 4.35851 5.36368 7.23466C2.7502 10.1108 1.34407 13.8826 1.43694 17.7677C1.52981 21.6528 3.11454 25.353 5.86246 28.101C5.92602 28.1661 6.00186 28.2179 6.08558 28.2534C6.1693 28.2889 6.25923 28.3075 6.35018 28.308C6.44112 28.3085 6.53126 28.291 6.61539 28.2564C6.69951 28.2219 6.77594 28.171 6.84024 28.1067C6.90455 28.0424 6.95546 27.9659 6.99002 27.8818C7.02458 27.7977 7.04211 27.7075 7.04158 27.6166C7.04106 27.5257 7.0225 27.4357 6.98697 27.352C6.95144 27.2683 6.89965 27.1925 6.83461 27.1289C5.55381 25.8551 4.53838 24.3398 3.84709 22.6709C3.15581 21.002 2.8024 19.2126 2.80732 17.4062Z" fill="white"/>
<path d="M10.5484 29.7782C10.1583 29.5885 9.77226 29.3773 9.40114 29.1511C9.24552 29.0561 9.05853 29.0268 8.88131 29.0697C8.70409 29.1126 8.55116 29.2241 8.45616 29.3797C8.36116 29.5353 8.33187 29.7223 8.37474 29.8995C8.41761 30.0767 8.52912 30.2297 8.68475 30.3247C9.09331 30.5741 9.51825 30.8061 9.94764 31.0148C10.0288 31.0543 10.117 31.0774 10.2071 31.0827C10.2973 31.0881 10.3875 31.0757 10.4729 31.0462C10.5582 31.0167 10.6368 30.9706 10.7044 30.9107C10.7719 30.8508 10.827 30.7782 10.8664 30.697C10.9059 30.6158 10.929 30.5276 10.9343 30.4375C10.9397 30.3473 10.9273 30.257 10.8978 30.1717C10.8682 30.0864 10.8222 30.0077 10.7623 29.9402C10.7024 29.8727 10.6297 29.8176 10.5485 29.7782H10.5484Z" fill="white"/>
<path d="M28.9357 11.4101C28.9751 11.4914 29.03 11.5641 29.0975 11.6241C29.1649 11.6841 29.2436 11.7302 29.3289 11.7599C29.4141 11.7895 29.5044 11.802 29.5946 11.7968C29.6847 11.7915 29.7729 11.7685 29.8542 11.7292C29.9354 11.6898 30.0081 11.6348 30.0681 11.5674C30.1281 11.4999 30.1743 11.4213 30.2039 11.336C30.2335 11.2507 30.2461 11.1604 30.2408 11.0703C30.2355 10.9802 30.2126 10.892 30.1732 10.8107C29.966 10.3827 29.7345 9.95773 29.485 9.54742C29.4381 9.47027 29.3764 9.40313 29.3036 9.34981C29.2307 9.2965 29.148 9.25806 29.0603 9.23669C28.8831 9.19354 28.696 9.22254 28.5402 9.31732C28.3844 9.4121 28.2726 9.56489 28.2295 9.74208C28.1863 9.91926 28.2153 10.1063 28.3101 10.2621C28.5369 10.6351 28.7474 11.0214 28.9357 11.4101Z" fill="white"/>
<path d="M18.1883 31.06C17.7543 31.1115 17.3152 31.1422 16.8828 31.1526C16.7038 31.1595 16.5345 31.236 16.4111 31.3658C16.2876 31.4956 16.2196 31.6684 16.2217 31.8476C16.2238 32.0267 16.2957 32.198 16.4222 32.3249C16.5487 32.4518 16.7197 32.5243 16.8988 32.527C16.9042 32.527 16.9099 32.527 16.9153 32.5267C17.3906 32.5156 17.873 32.4815 18.3497 32.4253C18.5306 32.4037 18.6956 32.3112 18.8083 32.1681C18.9211 32.025 18.9725 31.843 18.9511 31.662C18.9298 31.4811 18.8375 31.316 18.6945 31.203C18.5515 31.0901 18.3695 31.0386 18.1885 31.0597L18.1883 31.06Z" fill="white"/>
<path d="M14.276 30.9666C13.8484 30.8951 13.4184 30.8021 12.9981 30.6895C12.8219 30.6424 12.6342 30.6672 12.4763 30.7585C12.3184 30.8498 12.2032 31 12.1561 31.1762C12.109 31.3524 12.1339 31.5401 12.2252 31.698C12.3164 31.8559 12.4667 31.9711 12.6429 32.0182C13.1055 32.1417 13.5788 32.2441 14.0498 32.3226C14.1389 32.3375 14.23 32.3347 14.3179 32.3143C14.4059 32.294 14.489 32.2565 14.5624 32.204C14.6359 32.1515 14.6983 32.0851 14.7461 32.0085C14.7939 31.9319 14.8262 31.8467 14.841 31.7576C14.8559 31.6686 14.853 31.5775 14.8327 31.4895C14.8123 31.4016 14.7749 31.3185 14.7224 31.245C14.6699 31.1715 14.6035 31.1091 14.5269 31.0613C14.4503 31.0135 14.3651 30.9813 14.276 30.9664V30.9666Z" fill="white"/>
<path d="M31.0076 17.0748C30.8253 17.0704 30.6487 17.1385 30.5167 17.2642C30.3846 17.3899 30.3079 17.5628 30.3033 17.7451C30.2922 18.1798 30.2607 18.6189 30.2089 19.0506C30.1874 19.2317 30.2386 19.4139 30.3513 19.5572C30.4641 19.7005 30.6291 19.7932 30.8101 19.8149C30.8376 19.818 30.8651 19.8196 30.8927 19.8197C31.0607 19.8194 31.2229 19.7576 31.3485 19.646C31.4741 19.5344 31.5545 19.3806 31.5745 19.2138C31.6309 18.7395 31.6658 18.2571 31.6776 17.7794C31.6799 17.6891 31.6644 17.5993 31.632 17.515C31.5995 17.4307 31.5508 17.3537 31.4886 17.2883C31.4264 17.2228 31.3518 17.1703 31.2693 17.1337C31.1868 17.097 31.0978 17.077 31.0076 17.0748Z" fill="white"/>
<path d="M28.8978 24.9386C28.7469 24.8363 28.5616 24.7981 28.3825 24.8323C28.2035 24.8664 28.0453 24.9702 27.9427 25.1209C27.6983 25.4804 27.4341 25.8326 27.1568 26.1672C27.0979 26.2366 27.0533 26.3169 27.0256 26.4037C26.998 26.4904 26.9878 26.5817 26.9958 26.6724C27.0037 26.763 27.0296 26.8512 27.0719 26.9318C27.1142 27.0124 27.1721 27.0838 27.2422 27.1418C27.3123 27.1999 27.3932 27.2434 27.4803 27.2699C27.5674 27.2964 27.6588 27.3054 27.7494 27.2963C27.8399 27.2872 27.9278 27.2601 28.0078 27.2168C28.0878 27.1735 28.1585 27.1146 28.2156 27.0438C28.5204 26.6759 28.8115 26.2888 29.08 25.8934C29.1307 25.8187 29.1662 25.7348 29.1845 25.6464C29.2028 25.558 29.2035 25.4669 29.1866 25.3783C29.1697 25.2896 29.1355 25.2051 29.0859 25.1297C29.0364 25.0543 28.9724 24.9893 28.8978 24.9386Z" fill="white"/>
<path d="M29.8443 13.8593C29.9558 14.2779 30.0484 14.708 30.1199 15.1376C30.1466 15.2981 30.2292 15.4439 30.3533 15.5492C30.4773 15.6545 30.6346 15.7124 30.7973 15.7127C30.8352 15.7126 30.873 15.7094 30.9104 15.7032C30.9995 15.6885 31.0848 15.6563 31.1615 15.6086C31.2381 15.5608 31.3046 15.4984 31.3571 15.425C31.4096 15.3515 31.4472 15.2685 31.4676 15.1805C31.488 15.0925 31.4909 15.0014 31.4761 14.9123C31.3978 14.4397 31.2956 13.9662 31.1731 13.5055C31.1262 13.3293 31.0112 13.1789 30.8535 13.0875C30.6957 12.9961 30.5081 12.9711 30.3319 13.018C30.1557 13.065 30.0053 13.1799 29.9139 13.3377C29.8225 13.4955 29.7975 13.6831 29.8444 13.8593H29.8443Z" fill="white"/>
<path d="M25.307 28.0145C24.9709 28.2925 24.6188 28.5567 24.2607 28.7994C24.186 28.85 24.1219 28.9149 24.0723 28.9903C24.0226 29.0657 23.9883 29.1501 23.9713 29.2388C23.9543 29.3274 23.9549 29.4186 23.9731 29.507C23.9913 29.5954 24.0267 29.6794 24.0774 29.7541C24.1281 29.8288 24.1929 29.8928 24.2683 29.9425C24.3437 29.9921 24.4281 30.0264 24.5168 30.0435C24.6055 30.0605 24.6966 30.0599 24.785 30.0417C24.8734 30.0235 24.9574 29.988 25.0321 29.9374C25.4262 29.6705 25.8133 29.3801 26.1832 29.0747C26.3238 28.9585 26.4124 28.7912 26.4297 28.6096C26.4469 28.4281 26.3913 28.2471 26.2752 28.1065C26.159 27.9659 25.9917 27.8773 25.8101 27.86C25.6286 27.8428 25.4476 27.8984 25.307 28.0145Z" fill="white"/>
<path d="M30.517 21.1584C30.3433 21.1032 30.1548 21.1192 29.9929 21.2028C29.8309 21.2865 29.7088 21.4309 29.6533 21.6045C29.5217 22.017 29.368 22.429 29.1964 22.8295C29.1589 22.9127 29.1383 23.0026 29.136 23.0939C29.1336 23.1852 29.1494 23.276 29.1826 23.3611C29.2157 23.4462 29.2654 23.5238 29.3289 23.5895C29.3924 23.6552 29.4683 23.7075 29.5522 23.7435C29.6361 23.7795 29.7264 23.7984 29.8177 23.7991C29.909 23.7998 29.9995 23.7824 30.084 23.7477C30.1685 23.7131 30.2452 23.6619 30.3097 23.5973C30.3742 23.5326 30.4252 23.4558 30.4597 23.3713C30.649 22.9305 30.8182 22.4763 30.9628 22.0221C30.9903 21.9361 31.0006 21.8456 30.9931 21.7556C30.9855 21.6656 30.9603 21.5781 30.9189 21.4978C30.8775 21.4176 30.8207 21.3464 30.7517 21.2881C30.6827 21.2299 30.603 21.1858 30.517 21.1584Z" fill="white"/>
<path d="M21.9675 30.0508C21.5711 30.2206 21.1589 30.3741 20.7423 30.507C20.6563 30.5344 20.5765 30.5785 20.5076 30.6367C20.4386 30.695 20.3818 30.7662 20.3403 30.8464C20.2989 30.9266 20.2737 31.0142 20.2661 31.1042C20.2585 31.1941 20.2687 31.2847 20.2961 31.3707C20.3236 31.4567 20.3677 31.5365 20.4259 31.6054C20.4842 31.6744 20.5554 31.7312 20.6356 31.7727C20.7158 31.8141 20.8034 31.8393 20.8934 31.8469C20.9833 31.8545 21.0739 31.8443 21.1599 31.8168C21.6181 31.6708 22.072 31.502 22.5087 31.315C22.6763 31.2432 22.8086 31.1078 22.8764 30.9384C22.9442 30.7691 22.9419 30.5798 22.8701 30.4122C22.7983 30.2445 22.6629 30.1123 22.4936 30.0445C22.3242 29.9767 22.1349 29.979 21.9673 30.0508H21.9675Z" fill="white"/>
<path d="M10.7435 16.0017C10.7435 14.8749 10.0026 13.972 8.85588 13.7013C8.22593 13.5521 7.56401 13.6209 6.97816 13.8963C6.39231 14.1718 5.91714 14.6377 5.63019 15.218C5.54984 15.3809 5.53726 15.5691 5.5952 15.7413C5.65313 15.9135 5.77687 16.0558 5.93938 16.137C6.10189 16.2183 6.28996 16.2319 6.46249 16.175C6.63502 16.118 6.77798 15.995 6.86015 15.833C7.00693 15.5284 7.25384 15.2834 7.5596 15.1389C7.86535 14.9945 8.21141 14.9595 8.53993 15.0396C8.73432 15.0854 9.36841 15.2905 9.36841 16.0017C9.36841 16.7187 8.54025 17.2718 7.66343 17.8574C6.67614 18.5164 5.55762 19.2633 5.55762 20.5C5.55762 20.6823 5.63005 20.8572 5.75899 20.9861C5.88792 21.1151 6.0628 21.1875 6.24514 21.1875H10.0559C10.1468 21.1884 10.2369 21.1712 10.3211 21.1371C10.4053 21.1029 10.4818 21.0524 10.5464 20.9885C10.6109 20.9246 10.6622 20.8485 10.6971 20.7647C10.7321 20.6808 10.7501 20.5909 10.7501 20.5C10.7501 20.4092 10.7321 20.3192 10.6971 20.2354C10.6622 20.1515 10.6109 20.0754 10.5464 20.0115C10.4818 19.9476 10.4053 19.8971 10.3211 19.8629C10.2369 19.8288 10.1468 19.8116 10.0559 19.8125H7.33214C7.62018 19.5396 8.02733 19.2677 8.42681 19.0008C9.51291 18.2757 10.7435 17.4539 10.7435 16.0017Z" fill="white"/>
<path d="M17.245 18.2656C17.2449 18.0832 17.1725 17.9084 17.0436 17.7795C16.9146 17.6505 16.7398 17.5781 16.5574 17.5781H15.9988V13.9257C15.9988 13.7834 15.9546 13.6445 15.8722 13.5283C15.7899 13.4121 15.6736 13.3244 15.5392 13.2772C15.4049 13.23 15.2592 13.2256 15.1223 13.2647C14.9854 13.3039 14.864 13.3845 14.7749 13.4956L11.2945 17.8356C11.2135 17.9367 11.1627 18.0586 11.148 18.1873C11.1333 18.316 11.1552 18.4463 11.2113 18.563C11.2673 18.6798 11.3552 18.7784 11.4649 18.8474C11.5745 18.9164 11.7014 18.953 11.8309 18.9531H14.6238V20.8867C14.623 20.9775 14.6401 21.0676 14.6743 21.1518C14.7084 21.236 14.7589 21.3126 14.8228 21.3771C14.8868 21.4417 14.9628 21.4929 15.0467 21.5279C15.1305 21.5629 15.2205 21.5809 15.3113 21.5809C15.4022 21.5809 15.4921 21.5629 15.576 21.5279C15.6598 21.4929 15.7359 21.4417 15.7998 21.3771C15.8638 21.3126 15.9143 21.236 15.9484 21.1518C15.9826 21.0676 15.9997 20.9775 15.9988 20.8867V18.9531H16.5574C16.7398 18.9531 16.9147 18.8807 17.0436 18.7517C17.1725 18.6228 17.245 18.4479 17.245 18.2656ZM14.6238 17.5781H13.2639L14.6238 15.8818V17.5781Z" fill="white"/>
<path d="M20.7638 12.865C20.6753 12.8471 20.584 12.8469 20.4954 12.8643C20.4068 12.8818 20.3225 12.9166 20.2473 12.9667C20.1721 13.0168 20.1076 13.0812 20.0574 13.1563C20.0072 13.2314 19.9723 13.3157 19.9548 13.4043L18.4079 21.1387C18.3721 21.3175 18.4088 21.5031 18.5099 21.6549C18.611 21.8066 18.7683 21.9119 18.9471 21.9477C18.9916 21.9566 19.037 21.9611 19.0824 21.9611C19.2412 21.9609 19.395 21.9058 19.5178 21.8051C19.6405 21.7044 19.7246 21.5643 19.7558 21.4086L21.3027 13.6742C21.3205 13.5857 21.3206 13.4945 21.3032 13.4059C21.2857 13.3174 21.2509 13.2331 21.2009 13.1579C21.1509 13.0828 21.0865 13.0183 21.0115 12.968C20.9365 12.9177 20.8523 12.8828 20.7638 12.865Z" fill="white"/>
<path d="M24.2919 21.1879C24.4276 21.1878 24.5603 21.1475 24.6733 21.0722C24.7863 20.9969 24.8744 20.8898 24.9267 20.7645L27.5048 14.577C27.5484 14.4726 27.5655 14.359 27.5546 14.2463C27.5438 14.1336 27.5052 14.0254 27.4424 13.9312C27.3797 13.837 27.2946 13.7597 27.1948 13.7063C27.095 13.6529 26.9835 13.625 26.8703 13.625H23.3898C23.2087 13.6268 23.0355 13.7 22.908 13.8287C22.7805 13.9574 22.709 14.1313 22.709 14.3125C22.709 14.4937 22.7805 14.6675 22.908 14.7963C23.0355 14.925 23.2087 14.9982 23.3898 15H25.8391L23.6577 20.2358C23.6143 20.3402 23.5974 20.4538 23.6083 20.5664C23.6193 20.679 23.6578 20.7871 23.7205 20.8813C23.7832 20.9754 23.8681 21.0527 23.9678 21.1062C24.0674 21.1597 24.1787 21.1879 24.2919 21.1881V21.1879Z" fill="white"/>
</svg>
