<svg width="20" height="21" viewBox="0 0 20 21" fill="none" xmlns="http://www.w3.org/2000/svg">
<g clip-path="url(#clip0_140_15749)">
<path d="M9.99996 19.8079C9.55829 19.8079 8.79163 19.5829 7.34996 17.6496C7.23675 17.5007 7.08611 17.3845 6.91338 17.3127C6.74065 17.241 6.55199 17.2163 6.36663 17.2412C4.16663 17.5912 3.49996 17.1912 3.19996 16.8996C2.89996 16.6079 2.54163 15.9246 2.84996 13.7246C2.87664 13.5391 2.85279 13.3499 2.78092 13.1768C2.70906 13.0037 2.59184 12.8533 2.44163 12.7412C0.508293 11.2996 0.291626 10.5329 0.291626 10.0912C0.291626 9.64957 0.508293 8.88291 2.44163 7.44124C2.59184 7.32922 2.70906 7.17875 2.78092 7.00569C2.85279 6.83263 2.87664 6.64338 2.84996 6.45791C2.54163 4.24124 2.89996 3.58291 3.19996 3.28291C3.49996 2.98291 4.16663 2.59124 6.36663 2.94124C6.55199 2.96614 6.74065 2.94147 6.91338 2.86974C7.08611 2.79801 7.23675 2.68179 7.34996 2.53291C8.79163 0.599573 9.55829 0.374573 9.99996 0.374573C10.4416 0.374573 11.2083 0.599573 12.65 2.53291C12.7637 2.68114 12.9145 2.79688 13.087 2.86854C13.2596 2.9402 13.448 2.96527 13.6333 2.94124C15.85 2.62457 16.5 2.99124 16.8 3.28291C17.1 3.57457 17.5 4.25791 17.15 6.45791C17.1233 6.64338 17.1471 6.83263 17.219 7.00569C17.2909 7.17875 17.4081 7.32922 17.5583 7.44124C19.4916 8.88291 19.7083 9.64957 19.7083 10.0912C19.7083 10.5329 19.4916 11.2996 17.5583 12.7412C17.4081 12.8533 17.2909 13.0037 17.219 13.1768C17.1471 13.3499 17.1233 13.5391 17.15 13.7246C17.4583 15.9412 17.1 16.5996 16.8 16.8996C16.5 17.1996 15.85 17.5579 13.6333 17.2412C13.4479 17.2163 13.2593 17.241 13.0865 17.3127C12.9138 17.3845 12.7632 17.5007 12.65 17.6496C11.2083 19.5829 10.4416 19.8079 9.99996 19.8079ZM6.51663 15.9829C6.87251 15.9823 7.22362 16.0648 7.54193 16.224C7.86024 16.3831 8.13695 16.6145 8.34996 16.8996C9.51663 18.4579 10.0166 18.5662 10.0166 18.5662C10.0166 18.5662 10.4916 18.4662 11.6833 16.8996C11.9301 16.5711 12.2607 16.3151 12.6404 16.1582C13.0201 16.0013 13.435 15.9494 13.8416 16.0079C15.55 16.2496 15.9416 16.0079 15.9583 16.0079C15.975 16.0079 16.1833 15.6162 15.9583 13.8996C15.8982 13.4993 15.9453 13.0903 16.0946 12.7141C16.2439 12.338 16.4901 12.008 16.8083 11.7579C18.3666 10.5912 18.475 10.0912 18.475 10.0912C18.475 10.0912 18.375 9.61624 16.8083 8.42457C16.4826 8.17922 16.2282 7.85138 16.0714 7.4749C15.9147 7.09842 15.8613 6.68693 15.9166 6.28291C16.15 4.56624 15.9166 4.18291 15.9166 4.15791C15.227 3.98741 14.5062 3.98741 13.8166 4.15791C13.4128 4.21669 13.0006 4.16658 12.6226 4.01276C12.2447 3.85893 11.9146 3.60697 11.6666 3.28291C10.5 1.72457 9.99996 1.61624 9.99996 1.61624C9.99996 1.61624 9.52496 1.71624 8.33329 3.28291C8.08794 3.60865 7.7601 3.86301 7.38362 4.01976C7.00714 4.1765 6.59566 4.22995 6.19163 4.17457C4.52496 3.93291 4.09163 4.17457 4.07496 4.17457C4.05829 4.17457 3.84996 4.56624 4.07496 6.28291C4.13126 6.68617 4.0791 7.09716 3.92385 7.47358C3.76859 7.85 3.51585 8.17825 3.19163 8.42457C1.63329 9.59124 1.52496 10.0912 1.52496 10.0912C1.52496 10.0912 1.62496 10.5662 3.19163 11.7579C3.51737 12.0033 3.77173 12.3311 3.92848 12.7076C4.08522 13.0841 4.13867 13.4955 4.08329 13.8996C3.84996 15.6162 4.08329 15.9996 4.08329 16.0246C4.77291 16.1951 5.49367 16.1951 6.18329 16.0246C6.29314 16.0019 6.40459 15.988 6.51663 15.9829Z" fill="#009A5E"/>
<path d="M9.16658 12.3829C9.00088 12.3828 8.84201 12.3168 8.72491 12.1996L7.05825 10.5329C6.94785 10.4144 6.88774 10.2577 6.8906 10.0958C6.89346 9.93388 6.95905 9.77939 7.07356 9.66488C7.18807 9.55037 7.34256 9.48478 7.50448 9.48192C7.6664 9.47906 7.8231 9.53917 7.94158 9.64957L9.16658 10.8746L12.0582 7.9829C12.1767 7.8725 12.3334 7.8124 12.4953 7.81525C12.6573 7.81811 12.8118 7.8837 12.9263 7.99821C13.0408 8.11272 13.1064 8.26721 13.1092 8.42913C13.1121 8.59105 13.052 8.74775 12.9416 8.86623L9.60825 12.1996C9.49115 12.3168 9.33228 12.3828 9.16658 12.3829Z" fill="#009A5E"/>
</g>
<defs>
<clipPath id="clip0_140_15749">
<rect width="20" height="20" fill="white" transform="translate(0 0.0912476)"/>
</clipPath>
</defs>
</svg>
